<svg xmlns="http://www.w3.org/2000/svg" version="1.1" xmlns:xlink="http://www.w3.org/1999/xlink" xmlns:svgjs="http://svgjs.dev/svgjs" width="128" height="128" viewBox="0 0 128 128"><g transform="matrix(0.8046875,0,0,0.8046875,12.471759965668511,0.6282636088709666)"><svg viewBox="0 0 126 155" data-background-color="#97978d" preserveAspectRatio="xMidYMid meet" height="157" width="128" xmlns="http://www.w3.org/2000/svg" xmlns:xlink="http://www.w3.org/1999/xlink"><g id="tight-bounds" transform="matrix(1,0,0,1,0.03454606141522021,0.25)"><svg viewBox="0 0 125.93090787716956 154.5" height="154.5" width="125.93090787716956"><g><svg viewBox="0 0 125.93090787716956 154.5" height="154.5" width="125.93090787716956"><g><svg viewBox="0 0 125.93090787716956 154.5" height="154.5" width="125.93090787716956"><g id="textblocktransform"><svg viewBox="0 0 125.93090787716956 154.5" height="154.5" width="125.93090787716956" id="textblock"><g><svg viewBox="0 0 125.93090787716956 154.5" height="154.5" width="125.93090787716956"><g transform="matrix(1,0,0,1,0,0)"><svg width="125.93090787716956" viewBox="1.07 -36.06 29.81 36.57000000000001" height="154.5" data-palette-color="#ffffff"><g class="wordmark-text-0" data-fill-palette-color="primary" id="text-0"><path d="M18.36 0.51L18.36 0.51Q13.23 0.51 9.33-1.6 5.42-3.71 3.25-7.63 1.07-11.55 1.07-17.04L1.07-17.04 1.07-18.48Q1.07-23.61 3.11-27.58 5.15-31.54 8.96-33.8 12.77-36.06 17.99-36.06L17.99-36.06Q21.66-36.06 24.91-35.06 28.17-34.06 30.88-31.79L30.88-31.79 30.88-22.92 25.1-22.92 24.32-28.25Q23.49-28.81 22.56-29.22 21.63-29.64 20.56-29.86 19.48-30.08 18.24-30.08L18.24-30.08Q15.38-30.08 13.28-28.69 11.18-27.29 10.05-24.72 8.91-22.14 8.91-18.53L8.91-18.53 8.91-17.04Q8.91-13.55 10.08-10.94 11.25-8.33 13.42-6.88 15.58-5.44 18.48-5.44L18.48-5.44Q19.97-5.44 21.48-5.77 23-6.1 24.32-6.64L24.32-6.64 25.12-11.65 30.88-11.65 30.88-2.93Q28.78-1.51 25.59-0.5 22.39 0.51 18.36 0.51Z" fill="#ffffff" data-fill-palette-color="primary"></path></g></svg></g></svg></g></svg></g></svg></g></svg></g><defs></defs></svg><rect width="125.93090787716956" height="154.5" fill="none" stroke="none" visibility="hidden"></rect></g></svg></g></svg>