<svg xmlns="http://www.w3.org/2000/svg" version="1.1" xmlns:xlink="http://www.w3.org/1999/xlink" xmlns:svgjs="http://svgjs.dev/svgjs" viewBox="0 0 1422 800"><defs><linearGradient x1="50%" y1="0%" x2="50%" y2="100%" id="ccchaos-grad"><stop stop-color="#344966" stop-opacity="1" offset="0%"></stop><stop stop-color="#f0f4ef" stop-opacity="1" offset="100%"></stop></linearGradient></defs><g stroke-width="2" stroke="url(#ccchaos-grad)" fill="none" stroke-linecap="round"><path d="M694.79 -262.98C705.79 -263.01 716.63 -262.75 727.29 -262.21 737.94 -261.68 748.42 -260.88 758.71 -259.81 769 -258.74 779.1 -257.39 789.03 -255.78 798.97 -254.14 808.74 -252.23 818.37 -250.02 828.02 -247.79 837.56 -245.25 847 -242.42 856.51 -239.54 865.97 -236.37 875.4 -232.91 884.98 -229.42 894.59 -225.65 904.29 -221.63 914.2 -217.6 924.26 -213.35 934.52 -208.88 945.07 -204.46 955.89 -199.86 967.01 -195.1 978.48 -190.42 990.3 -185.61 1002.48 -180.66 1015.03 -175.81 1027.94 -170.84 1041.2 -165.75 1054.74 -160.75 1068.56 -155.61 1082.59 -150.32 1096.72 -145.09 1110.9 -139.68 1125 -134.08 1138.91 -128.47 1152.51 -122.64 1165.64 -116.56 1178.2 -110.42 1190 -104.01 1200.88 -97.31 1210.82 -90.49 1219.59 -83.37 1227.06 -75.94 1233.35 -68.37 1238.22 -60.49 1241.63 -52.31 1243.9 -43.98 1244.81 -35.36 1244.47 -26.47 1243.38 -17.44 1241.4 -8.17 1238.76 1.33 1236.11 10.93 1233.39 20.73 1230.92 30.71 1229.36 40.75 1228.69 50.93 1229.21 61.25 1231.44 71.58 1235.32 82.01 1240.99 92.54 1248.71 103.04 1258.27 113.62 1269.56 124.26 1282.5 134.85 1296.68 145.5 1311.72 156.2 1327.29 166.84 1342.81 177.53 1357.73 188.26 1371.65 198.93 1383.96 209.66 1394.16 220.43 1402.06 231.15 1407.19 241.94 1409.33 252.79 1408.73 263.59 1405.2 274.46 1398.97 285.42 1390.76 296.35 1380.73 307.36 1369.44 318.48 1357.96 329.57 1346.6 340.77 1336.07 352.08 1327.37 363.38 1320.72 374.81 1316.59 386.36 1315.58 397.9 1317.54 409.57 1322.41 421.38 1330.19 433.19 1340.11 445 1351.54 456.8 1364.15 468.6 1376.83 480.39 1388.84 492.16 1399.84 503.93 1408.83 515.67 1415.3 527.36 1419.2 539.04 1419.96 550.67 1417.52 562.21 1412.21 573.72 1404 585.13 1393.27 596.41 1380.63 607.62 1366.44 618.67 1351.28 629.53 1335.87 640.28 1320.64 650.81 1306.14 661.06 1292.95 671.16 1281.33 680.94 1271.54 690.38 1263.93 699.62 1258.41 708.46 1254.92 716.88 1253.58 725.07 1253.94 732.8 1255.7 740.04 1258.84 747.05 1262.69 753.56 1266.84 759.58 1273.28 768.06 1281.63 782.6 1281.94 788.88 1280.32 792.99 1277 796.89 1271.96 800.67 1265.47 804.68 1257.37 808.73 1247.81 812.9 1237.06 817.55 1225.15 822.51 1212.3 827.86 1198.74 833.9 1184.63 840.49 1170.15 847.7 1155.51 855.73 1140.85 864.45 1126.32 873.88 1112.05 884.12 1098.15 895.03 1084.69 906.53 1071.74 918.64 1059.34 931.17 1047.49 943.97 1036.24 956.97 1025.53 969.93 1015.34 982.63 1005.69 995 996.47 1006.73 987.6 1017.6 979.17 1027.58 970.98 1036.33 962.96 1043.69 955.24 1049.75 947.57 1054.19 939.89 1056.97 932.38 1058.34 924.77 1058.07 917.01 1056.25 909.32 1053.34 901.41 1049.19 893.27 1044.04 885.13 1038.49 876.71 1032.49 868 1026.34 859.26 1020.7 850.22 1015.54 840.88 1011.17 831.5 1008.14 821.81 1006.38 811.84 1006.07 801.82 1007.57 791.52 1010.67 780.96 1015.33 770.36 1021.68 759.52 1029.32 748.43 1037.99 737.33 1047.61 726 1057.62 714.46 1067.61 702.92 1077.42 691.33 1086.3 679.69 1093.9 668.07 1100.25 656.43 1104.75 644.78 1107.25 633.15 1107.92 621.54 1106.42 609.95 1102.81 598.4 1097.46 586.9 1090.28 575.45 1081.5 564.06 1071.6 552.75 1060.68 541.54 1049.07 530.4 1037.25 519.38 1025.38 508.49 1013.76 497.69 1002.82 487.04 992.64 476.56 983.42 466.19 975.47 456 968.71 446 963.19 436.12 959.11 426.44 956.21 416.97 954.39 407.59 953.78 398.42 953.97 389.46 954.76 380.57 956.26 371.86 957.98 363.33 959.68 354.82 961.51 346.46 962.94 338.23 963.8 329.96 964.27 321.78 963.87 313.69 962.52 305.51 960.42 297.37 957.22 289.29 952.91 281.08 947.72 272.91 941.43 264.79 934.08 256.55 925.92 248.4 916.83 240.34 906.89 232.24 896.33 224.3 885.12 216.57 873.35 208.9 861.22 201.51 848.72 194.45 835.97 187.56 823.09 181.07 810.11 175 797.13 169.16 784.2 163.77 771.38 158.82 758.7 154.06 746.22 149.69 733.95 145.66 721.9 141.68 710.12 137.92 698.57 134.3 687.25 130.51 676.21 126.71 665.37 122.83 654.74 118.59 644.34 114.15 634.1 109.5 623.98 104.41 614.06 99.11 604.21 93.64 594.42 87.86 584.76 82.06 575.11 76.36 565.44 70.65 555.86 65.28 546.22 60.41 536.5 55.9 526.84 52.11 517.06 49.14 507.17 46.79 497.29 45.36 487.28 44.84 477.12 44.91 466.96 45.78 456.65 47.33 446.17 49.13 435.69 51.32 425.05 53.72 414.24 55.87 403.44 57.89 392.47 59.65 381.34 60.75 370.22 61.4 359.08 61.6 347.94 61.09 336.81 60.23 325.69 59.13 314.58 57.64 303.5 56.19 292.45 54.95 281.45 53.79 270.49 53.15 259.58 53.15 248.76 53.61 237.98 54.89 227.3 57.02 216.73 59.74 206.22 63.29 195.84 67.6 185.6 72.36 175.43 77.7 165.42 83.52 155.59 89.47 145.82 95.67 136.24 101.99 126.86 108.14 117.56 114.25 108.45 120.25 99.56 125.9 90.73 131.39 82.11 136.7 73.7 141.67 65.34 146.53 57.18 151.32 49.21 155.89 41.26 160.52 33.49 165.26 25.89 169.96 18.26 174.9 10.77 180.12 3.43 185.45 -3.99 191.14 -11.3 197.2 -18.52 203.44 -25.85 210.06 -33.11 217.06 -40.31 224.22 -47.64 231.71 -54.93 239.5 -62.17 247.38 -69.56 255.5 -76.89 263.81 -84.17 272.12 -91.58 280.57 -98.92 289.14 -106.16 297.61 -113.49 306.17 -120.69 314.77 -127.75 323.26 -134.83 331.78 -141.73 340.35 -148.41 348.8 -155.06 357.31 -161.47 365.87 -167.6 374.34 -173.65 382.89 -179.41 391.54 -184.86 400.14 -190.21 408.86 -195.25 417.71 -199.97 426.56 -204.61 435.57 -208.94 444.72 -212.97 453.92 -216.95 463.28 -220.66 472.8 -224.1 482.39 -227.53 492.14 -230.72 502.05 -233.69 512.03 -236.67 522.17 -239.44 532.44 -241.99 542.78 -244.58 553.25 -246.96 563.83 -249.11 574.46 -251.29 585.19 -253.25 596 -254.95 606.85 -256.67 617.76 -258.13 628.72 -259.32 639.7 -260.5 650.71 -261.41 661.73 -262.02 672.76 -262.63 683.78 -262.95 694.78 -262.98" stroke-dasharray="5 2" transform="rotate(0, 711, 400)" opacity="0.91"></path><path d="M689.12 -237.39C699.54 -237.6 709.88 -237.53 720.11 -237.19 730.35 -236.83 740.49 -236.19 750.53 -235.26 760.59 -234.3 770.56 -233.06 780.46 -231.52 790.38 -229.93 800.25 -228.04 810.08 -225.86 819.98 -223.61 829.86 -221.06 839.77 -218.21 849.77 -215.31 859.84 -212.11 869.99 -208.64 880.3 -205.13 890.73 -201.36 901.33 -197.35 912.13 -193.35 923.14 -189.13 934.38 -184.72 945.85 -180.37 957.58 -175.85 969.58 -171.18 981.81 -166.61 994.29 -161.92 1007.02 -157.11 1019.93 -152.42 1033.02 -147.62 1046.24 -142.72 1059.5 -137.93 1072.79 -133.02 1085.99 -127.99 1099.03 -123.04 1111.81 -117.93 1124.21 -112.66 1136.18 -107.42 1147.55 -101.98 1158.2 -96.33 1168.12 -90.65 1177.11 -84.72 1185.05 -78.54 1192.06 -72.26 1197.89 -65.71 1202.49 -58.87 1206.12 -51.9 1208.54 -44.64 1209.78 -37.08 1210.27 -29.38 1209.8 -21.38 1208.53 -13.1 1207 -4.68 1205.07 3.99 1203 12.92 1201.37 21.98 1200.11 31.26 1199.5 40.75 1200.07 50.33 1201.77 60.1 1204.8 70.02 1209.52 80 1215.82 90.12 1223.75 100.36 1233.41 110.62 1244.54 120.98 1256.98 131.43 1270.57 141.87 1284.9 152.39 1299.58 162.97 1314.31 173.53 1328.54 184.14 1341.81 194.8 1353.83 205.44 1364.05 216.12 1372.1 226.84 1377.93 237.54 1381.13 248.28 1381.6 259.07 1379.67 269.83 1375.19 280.64 1368.43 291.52 1360.09 302.36 1350.3 313.27 1339.61 324.25 1328.95 335.21 1318.58 346.24 1309.09 357.34 1301.39 368.44 1295.6 379.62 1292.12 390.87 1291.48 402.12 1293.49 413.46 1298.12 424.87 1305.39 436.28 1314.57 447.64 1325.15 458.93 1336.86 470.23 1348.73 481.45 1360.1 492.59 1370.7 503.72 1379.61 514.76 1386.37 525.7 1390.93 536.61 1392.71 547.39 1391.61 558.03 1387.9 568.62 1381.44 579.04 1372.53 589.27 1361.66 599.43 1349.09 609.37 1335.29 619.05 1320.9 628.63 1306.27 637.93 1291.92 646.92 1278.37 655.78 1265.91 664.3 1254.84 672.45 1245.54 680.45 1238.01 688.06 1232.3 695.27 1228.59 702.32 1226.57 708.97 1226.06 715.2 1227.1 721.3 1229.16 727 1231.92 732.34 1237.16 740.06 1246.46 754.11 1248.88 760.7 1248.79 767.5 1239.8 781.83 1230.74 789.8 1223.04 795.75 1214.06 802.09 1203.94 808.9 1192.92 816.38 1181.03 824.41 1168.45 833.01 1155.38 842.33 1141.92 852.22 1128.22 862.68 1114.43 873.74 1100.65 885.25 1087 897.13 1073.55 909.36 1060.38 921.73 1047.57 934.1 1035.14 946.42 1023.12 958.44 1011.52 969.97 1000.35 980.97 989.6 991.16 979.23 1000.35 969.27 1008.58 959.63 1015.55 950.27 1021.13 941.24 1025.49 932.4 1028.36 923.71 1029.71 915.25 1029.86 906.85 1028.6 898.46 1026.04 890.22 1022.65 881.92 1018.3 873.53 1013.21 865.22 1007.94 856.77 1002.43 848.15 996.95 839.55 992.09 830.76 987.8 821.76 984.32 812.76 982.16 803.53 981.19 794.08 981.56 784.61 983.58 774.91 987.03 764.98 991.87 755.03 998.2 744.87 1005.64 734.49 1013.97 724.1 1023.13 713.51 1032.6 702.72 1042.02 691.94 1051.28 681.1 1059.69 670.23 1066.95 659.38 1073.1 648.5 1077.6 637.63 1080.28 626.79 1081.33 615.97 1080.41 605.18 1077.55 594.43 1073.08 583.74 1066.86 573.12 1059.1 562.56 1050.23 552.09 1040.27 541.73 1029.51 531.43 1018.41 521.27 1007.06 511.24 995.75 501.29 984.89 491.5 974.53 481.88 964.88 472.34 956.26 462.97 948.61 453.79 942.03 444.68 936.72 435.76 932.49 427.02 929.3 418.33 927.29 409.81 926.14 401.46 925.69 393.13 926.08 384.95 926.87 376.89 927.88 368.82 929.24 360.84 930.48 352.97 931.43 345.02 932.26 337.13 932.51 329.31 932.06 321.38 931.13 313.5 929.32 305.67 926.59 297.72 923.15 289.83 918.73 282.01 913.34 274.11 907.21 266.31 900.15 258.65 892.23 250.98 883.65 243.49 874.32 236.24 864.33 229.06 853.86 222.17 842.87 215.6 831.46 209.18 819.76 203.13 807.79 197.46 795.62 191.96 783.35 186.83 771.01 182.07 758.65 177.42 746.33 173.07 734.08 168.98 721.93 164.87 709.91 160.91 698.05 157.03 686.34 152.97 674.82 148.89 663.47 144.74 652.29 140.26 641.3 135.65 630.47 130.9 619.78 125.81 609.26 120.61 598.86 115.35 588.56 109.88 578.39 104.5 568.29 99.29 558.24 94.15 548.29 89.38 538.36 85.1 528.42 81.17 518.55 77.9 508.65 75.38 498.7 73.37 488.79 72.15 478.82 71.72 468.77 71.75 458.74 72.45 448.62 73.73 438.41 75.19 428.21 76.99 417.9 78.98 407.5 80.74 397.09 82.43 386.58 83.93 375.98 84.89 365.37 85.52 354.8 85.8 344.26 85.5 333.73 84.93 323.24 84.18 312.82 83.08 302.41 82.03 292.06 81.15 281.8 80.29 271.55 79.86 261.4 79.95 251.36 80.39 241.35 81.51 231.45 83.36 221.69 85.68 211.97 88.73 202.39 92.47 192.97 96.61 183.58 101.32 174.37 106.5 165.33 111.86 156.33 117.52 147.51 123.39 138.87 129.18 130.28 135.02 121.86 140.85 113.64 146.44 105.44 151.95 97.42 157.36 89.57 162.49 81.73 167.54 74.04 172.53 66.52 177.32 58.96 182.13 51.53 187.02 44.23 191.83 36.87 196.81 29.6 202.01 22.43 207.25 15.16 212.78 7.95 218.61 0.81 224.57 -6.46 230.86 -13.69 237.49 -20.88 244.25 -28.21 251.33 -35.51 258.7 -42.77 266.16 -50.16 273.88 -57.51 281.81 -64.79 289.76 -72.18 297.88 -79.49 306.14 -86.69 314.35 -93.95 322.65 -101.08 331.04 -108.04 339.32 -115 347.66 -121.76 356.04 -128.29 364.31 -134.77 372.62 -140.99 380.97 -146.94 389.21 -152.78 397.51 -158.33 405.87 -163.56 414.15 -168.69 422.51 -173.5 430.96 -177.99 439.36 -182.38 447.88 -186.47 456.51 -190.26 465.13 -193.99 473.88 -197.44 482.77 -200.63 491.67 -203.79 500.71 -206.73 509.9 -209.42 519.11 -212.14 528.47 -214.66 537.96 -216.96 547.48 -219.31 557.14 -221.46 566.92 -223.41 576.73 -225.42 586.65 -227.22 596.68 -228.81 606.72 -230.45 616.86 -231.87 627.07 -233.05 637.3 -234.27 647.59 -235.25 657.94 -235.97 668.28 -236.71 678.68 -237.19 689.11 -237.39" stroke-dasharray="8 3" transform="rotate(4.04, 711, 400)" opacity="0.77"></path><path d="M689.47 -211.81C699.49 -212.18 709.49 -212.29 719.47 -212.12 729.45 -211.93 739.42 -211.44 749.38 -210.67 759.35 -209.84 769.34 -208.7 779.34 -207.26 789.37 -205.74 799.45 -203.91 809.57 -201.77 819.76 -199.55 830.03 -197.01 840.39 -194.18 850.85 -191.27 861.42 -188.08 872.14 -184.61 882.98 -181.1 893.99 -177.33 905.17 -173.34 916.49 -169.35 928 -165.15 939.69 -160.78 951.51 -156.46 963.51 -151.98 975.66 -147.38 987.91 -142.87 1000.25 -138.26 1012.66 -133.54 1025.06 -128.95 1037.43 -124.27 1049.71 -119.51 1061.82 -114.87 1073.7 -110.13 1085.26 -105.3 1096.46 -100.57 1107.17 -95.71 1117.29 -90.73 1126.85 -85.8 1135.65 -80.71 1143.61 -75.44 1150.83 -70.17 1157.1 -64.69 1162.34 -58.99 1166.79 -53.24 1170.21 -47.23 1172.6 -40.97 1174.31 -34.61 1175.12 -27.97 1175.12 -21.06 1174.77 -14.02 1173.88 -6.7 1172.65 0.89 1171.57 8.63 1170.53 16.64 1169.76 24.9 1169.75 33.3 1170.43 41.94 1172 50.8 1174.86 59.78 1178.94 68.97 1184.34 78.34 1191.28 87.8 1199.62 97.43 1209.31 107.2 1220.35 117.03 1232.47 127 1245.45 137.07 1259.1 147.18 1273.03 157.38 1286.88 167.67 1300.36 177.97 1313.02 188.34 1324.45 198.76 1334.47 209.2 1342.61 219.68 1348.61 230.21 1352.51 240.73 1354 251.3 1353.04 261.9 1350.02 272.5 1344.83 283.14 1337.73 293.81 1329.44 304.47 1320.03 315.17 1310 325.91 1300.19 336.64 1290.8 347.41 1282.34 358.22 1275.57 369.02 1270.59 379.86 1267.71 390.74 1267.39 401.61 1269.45 412.52 1273.84 423.46 1280.6 434.39 1289.09 445.22 1298.85 455.93 1309.69 466.64 1320.75 477.22 1331.45 487.67 1341.6 498.11 1350.35 508.4 1357.28 518.53 1362.35 528.62 1364.98 538.55 1365.05 548.27 1362.78 557.95 1357.97 567.42 1350.79 576.65 1341.7 585.81 1330.81 594.72 1318.53 603.36 1305.39 611.9 1291.68 620.16 1277.84 628.1 1264.38 635.94 1251.56 643.47 1239.7 650.65 1229.17 657.74 1220.05 664.49 1212.47 670.9 1206.64 677.23 1202.38 683.25 1199.61 688.95 1198.43 697.33 1202.54 712.93 1206.34 720.35 1210.45 727.93 1215.52 743.55 1215.36 751.92 1214.04 757.99 1211.47 764.35 1207.64 771.05 1202.78 778.29 1196.67 785.95 1189.39 794.07 1181.17 802.78 1171.93 811.97 1161.81 821.64 1150.99 831.86 1139.52 842.5 1127.51 853.52 1115.13 864.92 1102.45 876.55 1089.6 888.32 1076.66 900.19 1063.72 911.96 1050.87 923.51 1038.15 934.78 1025.64 945.55 1013.38 955.66 1001.37 965.11 989.66 973.64 978.26 981.11 967.17 987.61 956.37 992.87 945.86 996.81 935.65 999.64 925.67 1001.13 915.92 1001.29 906.4 1000.47 897.05 998.47 887.81 995.41 878.76 991.77 869.78 987.4 860.83 982.53 852 977.67 843.15 972.75 834.26 968 825.44 963.95 816.54 960.51 807.55 957.89 798.58 956.54 789.49 956.3 780.27 957.27 771.05 959.76 761.69 963.5 752.18 968.45 742.66 974.73 733 981.95 723.18 989.93 713.35 998.62 703.38 1007.56 693.26 1016.43 683.15 1025.15 673.02 1033.1 662.89 1040.02 652.77 1045.96 642.67 1050.42 632.6 1053.25 622.54 1054.63 612.53 1054.22 602.58 1052.04 592.66 1048.38 582.82 1043.08 573.06 1036.31 563.35 1028.44 553.74 1019.46 544.25 1009.61 534.82 999.3 525.51 988.6 516.34 977.75 507.22 967.13 498.26 956.8 489.45 946.95 480.69 937.89 472.08 929.59 463.63 922.16 455.22 915.82 446.95 910.43 438.84 905.99 430.73 902.65 422.76 900.17 414.91 898.44 407.04 897.6 399.27 897.28 391.59 897.35 383.85 897.94 376.19 898.63 368.59 899.27 360.89 900.02 353.25 900.45 345.66 900.45 337.95 900.2 330.29 899.31 322.69 897.72 314.99 895.63 307.37 892.72 299.84 888.97 292.25 884.62 284.79 879.41 277.49 873.38 270.19 866.74 263.11 859.33 256.26 851.22 249.49 842.58 243 833.34 236.81 823.57 230.75 813.42 225.01 802.85 219.61 791.94 214.33 780.8 209.36 769.43 204.68 757.9 200.06 746.27 195.68 734.57 191.49 722.84 187.25 711.12 183.12 699.43 179.05 687.8 174.8 676.26 170.53 664.81 166.22 653.47 161.66 642.24 157.01 631.14 152.3 620.16 147.33 609.3 142.35 598.55 137.39 587.92 132.32 577.4 127.39 566.97 122.7 556.62 118.1 546.37 113.89 536.17 110.16 526.03 106.74 515.95 103.91 505.9 101.74 495.87 99.99 485.88 98.92 475.89 98.52 465.89 98.47 455.91 98.99 445.92 100 435.89 101.13 425.87 102.55 415.82 104.16 405.73 105.57 395.64 106.95 385.51 108.22 375.34 109.04 365.17 109.63 355.07 109.98 345.07 109.85 335.06 109.54 325.14 109.1 315.32 108.36 305.5 107.67 295.79 107.13 286.18 106.57 276.59 106.37 267.11 106.6 257.77 107.07 248.43 108.12 239.23 109.77 230.18 111.79 221.14 114.45 212.25 117.72 203.52 121.32 194.81 125.46 186.25 130.06 177.87 134.84 169.49 139.95 161.28 145.31 153.23 150.67 145.18 156.15 137.29 161.7 129.56 167.09 121.82 172.47 114.21 177.83 106.75 182.97 99.25 188.08 91.87 193.16 84.6 198.06 77.27 202.99 70.03 207.97 62.88 212.86 55.63 217.89 48.45 223.07 41.33 228.27 34.08 233.7 26.88 239.38 19.72 245.14 12.41 251.2 5.14 257.54 -2.08 263.99 -9.46 270.74 -16.8 277.76 -24.09 284.88 -31.51 292.24 -38.86 299.84 -46.14 307.47 -53.5 315.29 -60.76 323.27 -67.89 331.23 -75.05 339.32 -82.06 347.5 -88.88 355.61 -95.67 363.8 -102.25 372.04 -108.58 380.18 -114.84 388.36 -120.83 396.59 -126.52 404.7 -132.11 412.85 -137.39 421.05 -142.36 429.15 -147.2 437.3 -151.74 445.52 -155.95 453.65 -160.06 461.86 -163.87 470.16 -167.38 478.39 -170.83 486.74 -174 495.18 -176.92 503.6 -179.81 512.13 -182.48 520.79 -184.92 529.43 -187.39 538.2 -189.66 547.09 -191.73 555.98 -193.87 565.01 -195.83 574.16 -197.61 583.31 -199.47 592.59 -201.15 601.98 -202.66 611.38 -204.23 620.89 -205.62 630.51 -206.82 640.14 -208.08 649.86 -209.12 659.69 -209.95 669.52 -210.81 679.44 -211.43 689.46 -211.8" stroke-dasharray="3 3" transform="rotate(8.08, 711, 400)" opacity="0.19"></path><path d="M695.76 -186.22C705.51 -186.75 715.3 -187.02 725.13 -187.02 734.96 -186.98 744.84 -186.65 754.77 -186.02 764.72 -185.32 774.74 -184.31 784.83 -182.98 794.96 -181.56 805.17 -179.81 815.47 -177.75 825.84 -175.58 836.31 -173.1 846.89 -170.31 857.55 -167.43 868.33 -164.26 879.24 -160.82 890.23 -157.33 901.34 -153.58 912.57 -149.61 923.87 -145.63 935.27 -141.46 946.75 -137.11 958.26 -132.8 969.81 -128.36 981.36 -123.79 992.86 -119.31 1004.29 -114.74 1015.6 -110.08 1026.76 -105.54 1037.69 -100.93 1048.32 -96.25 1058.65 -91.7 1068.57 -87.08 1078 -82.39 1086.97 -77.81 1095.33 -73.14 1103 -68.37 1110.1 -63.69 1116.41 -58.87 1121.89 -53.92 1126.74 -49 1130.74 -43.91 1133.87 -38.64 1136.43 -33.35 1138.2 -27.84 1139.23 -22.12 1139.92 -16.33 1140.05 -10.29 1139.75 -4.01 1139.47 2.36 1139.05 9.01 1138.65 15.91 1138.74 22.94 1139.2 30.22 1140.21 37.76 1142.18 45.43 1144.99 53.34 1148.8 61.49 1153.89 69.75 1160.12 78.24 1167.56 86.93 1176.29 95.72 1186.14 104.71 1197.02 113.86 1208.84 123.09 1221.35 132.48 1234.29 142 1247.47 151.59 1260.54 161.29 1273.15 171.09 1285.11 180.94 1295.99 190.88 1305.48 200.89 1313.49 210.94 1319.64 221.04 1323.73 231.2 1325.9 241.38 1325.9 251.6 1323.76 261.86 1319.89 272.13 1314.21 282.44 1306.98 292.76 1298.87 303.1 1289.95 313.46 1280.65 323.83 1271.72 334.21 1263.29 344.6 1255.8 355 1249.92 365.41 1245.69 375.82 1243.35 386.22 1243.32 396.63 1245.4 407.04 1249.55 417.42 1255.83 427.81 1263.65 438.05 1272.63 448.14 1282.64 458.23 1292.9 468.15 1302.92 477.9 1312.57 487.63 1321.08 497.18 1328.06 506.54 1333.5 515.87 1336.82 524.99 1337.9 533.89 1336.9 542.76 1333.58 551.39 1328.05 559.77 1320.68 568.11 1311.5 576.19 1300.82 584 1289.1 591.75 1276.56 599.23 1263.57 606.44 1250.59 613.58 1237.85 620.45 1225.66 627.05 1214.4 633.61 1204.17 639.91 1195.14 645.96 1187.56 652.01 1181.35 657.84 1176.5 663.48 1172.08 671.95 1170.46 688.52 1172.19 696.82 1174.09 702.59 1176.07 708.45 1177.92 714.43 1179.74 720.75 1181.05 727.28 1181.69 734.07 1181.83 741.28 1181.05 748.81 1179.29 756.7 1176.74 765.06 1173.12 773.81 1168.43 782.94 1162.89 792.55 1156.33 802.51 1148.82 812.81 1140.58 823.48 1131.51 834.4 1121.75 845.49 1111.44 856.76 1100.6 868.05 1089.33 879.26 1077.77 890.35 1065.94 901.16 1053.96 911.55 1041.88 921.51 1029.77 930.83 1017.7 939.37 1005.69 947.19 993.81 954.04 982.08 959.82 970.52 964.68 959.15 968.37 948 970.85 937.05 972.37 926.31 972.72 915.78 971.94 905.45 970.38 895.3 967.87 885.32 964.55 875.51 960.85 865.83 956.65 856.27 952.13 846.83 947.79 837.47 943.53 828.16 939.54 818.94 936.29 809.73 933.69 800.54 931.89 791.39 931.28 782.22 931.69 773.01 933.21 763.83 936.08 754.6 940.05 745.3 945.08 736.01 951.26 726.65 958.25 717.22 965.86 707.78 974.09 698.27 982.51 688.69 990.84 679.11 999.04 669.57 1006.54 660.08 1013.1 650.59 1018.82 641.16 1023.22 631.8 1026.16 622.44 1027.82 613.17 1027.86 603.98 1026.29 594.8 1023.38 585.73 1018.94 576.76 1013.11 567.81 1006.21 558.97 998.21 550.26 989.3 541.57 979.85 533.01 969.88 524.59 959.63 516.18 949.42 507.91 939.3 499.77 929.46 491.65 920.18 483.65 911.47 475.79 903.42 467.91 896.27 460.15 889.92 452.5 884.4 444.82 879.87 437.24 876.14 429.74 873.15 422.18 871.06 414.7 869.55 407.28 868.53 399.77 868.13 392.31 868 384.9 868.01 377.39 868.31 369.92 868.52 362.49 868.52 354.97 868.5 347.49 868.06 340.09 867.14 332.61 865.93 325.22 864.09 317.94 861.6 310.63 858.65 303.47 854.98 296.47 850.58 289.51 845.67 282.75 840.03 276.23 833.71 269.79 826.9 263.61 819.46 257.71 811.43 251.92 802.99 246.41 794.06 241.19 784.68 236.05 775 231.18 764.98 226.54 754.66 221.93 744.16 217.51 733.45 213.25 722.59 208.92 711.64 204.68 700.6 200.5 689.51 196.17 678.41 191.84 667.31 187.5 656.24 182.97 645.21 178.41 634.22 173.85 623.31 169.13 612.46 164.44 601.69 159.86 591.01 155.21 580.4 150.76 569.87 146.57 559.42 142.49 549.05 138.79 538.75 135.53 528.52 132.54 518.34 130.08 508.23 128.19 498.17 126.63 488.15 125.65 478.17 125.23 468.22 125.07 458.31 125.39 448.41 126.13 438.54 126.95 428.69 128.02 418.84 129.27 409.01 130.35 399.19 131.45 389.36 132.5 379.55 133.2 369.74 133.75 360.05 134.14 350.48 134.15 340.91 134.05 331.47 133.88 322.15 133.46 312.82 133.1 303.63 132.88 294.57 132.62 285.51 132.66 276.58 133.05 267.8 133.61 259.01 134.64 250.37 136.18 241.87 138 233.37 140.37 225.02 143.25 216.82 146.42 208.61 150.06 200.55 154.13 192.63 158.38 184.7 162.96 176.91 167.82 169.26 172.7 161.58 177.76 154.03 182.95 146.61 188.04 139.13 193.18 131.77 198.36 124.51 203.38 117.18 208.41 109.93 213.46 102.77 218.35 95.52 223.29 88.32 228.29 81.19 233.19 73.94 238.21 66.73 243.36 59.56 248.51 52.27 253.84 45 259.39 37.76 264.99 30.4 270.84 23.06 276.95 15.75 283.15 8.33 289.61 0.96 296.33 -6.35 303.15 -13.76 310.2 -21.09 317.49 -28.33 324.83 -35.61 332.38 -42.76 340.1 -49.78 347.82 -56.78 355.7 -63.6 363.69 -70.23 371.65 -76.79 379.69 -83.12 387.82 -89.19 395.87 -95.16 403.97 -100.86 412.13 -106.25 420.18 -111.52 428.28 -116.49 436.42 -121.14 444.45 -125.66 452.52 -129.87 460.65 -133.77 468.67 -137.56 476.75 -141.06 484.89 -144.27 492.95 -147.42 501.09 -150.3 509.3 -152.94 517.45 -155.56 525.7 -157.97 534.04 -160.17 542.34 -162.4 550.75 -164.45 559.27 -166.33 567.76 -168.28 576.37 -170.08 585.11 -171.72 593.82 -173.46 602.66 -175.05 611.63 -176.49 620.58 -178.02 629.67 -179.41 638.89 -180.62 648.09 -181.92 657.44 -183.04 666.91 -183.96 676.39 -184.93 686 -185.69 695.75 -186.22" stroke-dasharray="2 6" transform="rotate(12.12, 711, 400)" opacity="0.56"></path><path d="M706.25 -160.63C715.82 -161.3 725.45 -161.72 735.15 -161.87 744.85 -161.98 754.63 -161.8 764.47 -161.32 774.34 -160.76 784.29 -159.88 794.32 -158.68 804.38 -157.37 814.53 -155.73 824.77 -153.76 835.04 -151.69 845.4 -149.28 855.84 -146.57 866.32 -143.76 876.88 -140.65 887.5 -137.26 898.14 -133.81 908.83 -130.11 919.54 -126.17 930.24 -122.22 940.93 -118.08 951.57 -113.75 962.14 -109.47 972.61 -105.04 982.94 -100.49 993.11 -96.03 1003.06 -91.47 1012.74 -86.83 1022.17 -82.31 1031.23 -77.72 1039.87 -73.08 1048.15 -68.58 1055.93 -64.01 1063.13 -59.4 1069.89 -54.91 1076.01 -50.36 1081.45 -45.74 1088.55 -38.91 1098.55 -24.84 1101.57 -17.52 1103.58 -10.07 1105.37 5.76 1105.77 14.22 1106.31 19.99 1107.03 26 1108.07 32.24 1109.8 38.56 1112.1 45.14 1115.11 51.94 1119.13 58.86 1124.03 66.01 1129.91 73.39 1136.92 80.89 1144.92 88.6 1153.91 96.53 1163.89 104.56 1174.68 112.79 1186.13 121.2 1198.16 129.71 1210.47 138.39 1222.85 147.21 1235.11 156.12 1246.93 165.16 1258.03 174.33 1268.26 183.55 1277.27 192.89 1284.81 202.31 1290.88 211.79 1295.16 221.34 1297.53 230.96 1298.2 240.61 1296.96 250.32 1293.88 260.08 1289.4 269.85 1283.43 279.67 1276.25 289.51 1268.46 299.36 1260.11 309.24 1251.58 319.12 1243.53 329.02 1236.05 338.92 1229.49 348.81 1224.44 358.7 1220.89 368.59 1219.04 378.45 1219.26 388.32 1221.35 398.16 1225.27 407.96 1231.08 417.76 1238.27 427.39 1246.49 436.86 1255.69 446.31 1265.17 455.59 1274.51 464.69 1283.63 473.77 1291.83 482.65 1298.76 491.34 1304.43 500 1308.29 508.45 1310.21 516.68 1310.32 524.89 1308.33 532.88 1304.32 540.64 1298.58 548.37 1291.07 555.87 1282.03 563.14 1271.85 570.38 1260.66 577.4 1248.78 584.2 1236.61 590.99 1224.35 597.57 1212.28 603.96 1200.74 610.36 1189.88 616.59 1179.88 622.67 1171 628.81 1163.22 634.84 1156.6 640.78 1151.3 646.84 1147.14 652.86 1144.07 658.88 1142.17 665.1 1141.14 671.37 1140.81 677.73 1141.27 684.36 1142.11 691.15 1143.15 698.12 1144.5 705.44 1145.71 712.99 1146.61 720.81 1147.38 729.01 1147.57 737.5 1147.1 746.3 1146.15 755.48 1144.37 764.95 1141.72 774.71 1138.43 784.78 1134.22 795.07 1129.13 805.54 1123.37 816.19 1116.78 826.92 1109.41 837.63 1101.46 848.33 1092.85 858.86 1083.67 869.13 1074.05 879.14 1063.99 888.7 1053.56 897.71 1042.88 906.19 1031.96 913.94 1020.87 920.86 1009.68 927.05 998.42 932.28 987.15 936.5 975.88 939.87 964.67 942.18 953.55 943.42 942.5 943.86 931.58 943.32 920.8 941.84 910.13 939.8 899.61 937.02 889.23 933.63 878.98 930.05 868.86 926.16 858.88 922.12 849 918.37 839.24 914.81 829.58 911.59 820.01 909.14 810.51 907.34 801.08 906.3 791.72 906.37 782.39 907.37 773.11 909.35 763.87 912.54 754.64 916.68 745.43 921.73 736.24 927.78 727.04 934.52 717.85 941.76 708.67 949.54 699.47 957.45 690.27 965.26 681.06 972.94 671.96 980 662.95 986.21 653.95 991.7 645.04 996 636.23 999.01 627.43 1000.9 618.73 1001.34 610.15 1000.32 601.56 998.08 593.08 994.45 584.73 989.5 576.37 983.55 568.13 976.51 560.02 968.55 551.9 959.99 543.9 950.83 536.02 941.27 528.13 931.6 520.35 921.87 512.69 912.23 505 902.96 497.42 894.05 489.93 885.63 482.4 877.91 474.96 870.82 467.6 864.42 460.17 858.88 452.81 854.04 445.51 849.9 438.13 846.59 430.79 843.89 423.51 841.72 416.12 840.22 408.77 839.1 401.47 838.24 394.07 837.82 386.71 837.47 379.41 837.1 372.02 836.89 364.69 836.47 357.45 835.78 350.16 834.98 342.98 833.76 335.92 832.07 328.85 830.09 321.95 827.55 315.22 824.41 308.54 820.89 302.06 816.75 295.81 811.99 289.64 806.82 283.72 801.04 278.05 794.69 272.47 787.95 267.14 780.69 262.06 772.94 257.05 764.87 252.26 756.37 247.67 747.52 243.09 738.41 238.67 729.01 234.39 719.35 230.05 709.53 225.79 699.52 221.61 689.37 217.3 679.12 213.02 668.78 208.78 658.37 204.39 647.93 200.03 637.47 195.72 627 191.3 616.54 186.98 606.1 182.8 595.69 178.59 585.31 174.6 574.98 170.89 564.71 167.28 554.47 164.02 544.29 161.17 534.18 158.54 524.1 156.37 514.09 154.68 504.13 153.25 494.21 152.3 484.34 151.82 474.53 151.53 464.75 151.65 455.01 152.12 445.32 152.63 435.64 153.39 426.01 154.31 416.42 155.1 406.84 155.94 397.3 156.79 387.79 157.36 378.28 157.86 368.93 158.28 359.72 158.41 350.5 158.49 341.43 158.55 332.51 158.4 323.57 158.34 314.78 158.41 306.14 158.43 297.48 158.7 288.97 159.27 280.6 159.96 272.21 161.03 263.97 162.52 255.86 164.23 247.74 166.38 239.75 168.98 231.9 171.8 224.02 175.03 216.27 178.66 208.65 182.44 200.98 186.53 193.44 190.91 186 195.33 178.51 199.95 171.12 204.73 163.83 209.45 156.47 214.28 149.18 219.18 141.98 223.98 134.68 228.82 127.44 233.72 120.26 238.49 112.97 243.33 105.73 248.24 98.53 253.07 91.21 258 83.92 263.06 76.65 268.1 69.28 273.31 61.93 278.69 54.6 284.12 47.18 289.77 39.79 295.64 32.44 301.59 25.01 307.79 17.64 314.22 10.35 320.74 3.01 327.5 -4.23 334.48 -11.35 341.53 -18.48 348.79 -25.46 356.24 -32.27 363.72 -39.04 371.37 -45.61 379.16 -51.96 386.94 -58.22 394.84 -64.23 402.84 -69.98 410.79 -75.6 418.83 -80.94 426.92 -85.98 434.95 -90.88 443.02 -95.48 451.15 -99.77 459.18 -103.93 467.26 -107.78 475.38 -111.34 483.41 -114.79 491.48 -117.96 499.6 -120.86 507.63 -123.71 515.72 -126.31 523.88 -128.67 531.95 -131.04 540.1 -133.2 548.33 -135.17 556.49 -137.19 564.75 -139.05 573.1 -140.76 581.4 -142.56 589.81 -144.22 598.33 -145.75 606.82 -147.4 615.42 -148.92 624.16 -150.32 632.86 -151.84 641.7 -153.22 650.68 -154.47 659.64 -155.81 668.75 -157 678.01 -158.01 687.26 -159.09 696.67 -159.97 706.24 -160.63" stroke-dasharray="2 9" transform="rotate(16.16, 711, 400)" opacity="0.30"></path><path d="M718.04 -135.04C727.44 -135.84 736.89 -136.39 746.39 -136.68 755.9 -136.93 765.47 -136.9 775.09 -136.56 784.73 -136.14 794.42 -135.4 804.17 -134.34 813.93 -133.16 823.74 -131.64 833.59 -129.8 843.46 -127.84 853.35 -125.54 863.26 -122.94 873.16 -120.22 883.07 -117.2 892.95 -113.9 902.79 -110.53 912.59 -106.89 922.3 -103.03 931.93 -99.13 941.44 -95.03 950.79 -90.75 960 -86.49 969 -82.09 977.73 -77.56 986.26 -73.1 994.47 -68.55 1002.3 -63.91 1009.86 -59.39 1017 -54.8 1023.65 -50.16 1029.98 -45.66 1035.79 -41.11 1041.04 -36.51 1048.11 -29.81 1058.91 -16.33 1062.72 -9.51 1065.71 -2.75 1069.74 11.21 1071.22 18.49 1072.99 25.9 1078.04 41.62 1081.97 49.99 1085.53 55.69 1089.75 61.6 1094.72 67.73 1100.62 73.93 1107.35 80.35 1114.91 86.98 1123.4 93.71 1132.66 100.64 1142.63 107.78 1153.27 115.02 1164.4 122.45 1175.85 130.07 1187.52 137.77 1199.15 145.66 1210.52 153.7 1221.51 161.83 1231.82 170.1 1241.21 178.52 1249.62 187 1256.74 195.6 1262.4 204.31 1266.65 213.08 1269.25 221.94 1270.13 230.88 1269.54 239.87 1267.31 248.93 1263.53 258.04 1258.65 267.19 1252.6 276.38 1245.61 285.6 1238.25 294.85 1230.55 304.13 1222.81 313.41 1215.64 322.72 1209.06 332.02 1203.38 341.32 1199.1 350.64 1196.18 359.93 1194.78 369.2 1195.22 378.48 1197.3 387.73 1200.99 396.92 1206.35 406.12 1212.93 415.16 1220.44 424.04 1228.86 432.91 1237.58 441.61 1246.24 450.13 1254.79 458.64 1262.61 466.97 1269.4 475.11 1275.18 483.25 1279.45 491.19 1282.03 498.95 1283.07 506.69 1282.26 514.25 1279.62 521.62 1275.39 528.98 1269.48 536.16 1262.06 543.17 1253.46 550.18 1243.75 557.03 1233.17 563.73 1222.08 570.46 1210.63 577.06 1199.06 583.53 1187.71 590.08 1176.69 596.53 1166.19 602.92 1156.48 609.42 1147.58 615.89 1139.59 622.36 1132.69 628.98 1126.79 635.65 1121.86 642.39 1118.04 649.34 1115.11 656.4 1112.96 663.6 1111.71 671.07 1111.02 678.72 1110.76 686.56 1111.04 694.7 1111.47 703.06 1111.92 711.66 1112.53 720.55 1112.89 729.66 1112.9 739 1112.73 748.59 1112.03 758.37 1110.71 768.29 1108.99 778.38 1106.56 788.55 1103.39 798.73 1099.72 808.93 1095.29 819.04 1090.13 828.98 1084.46 838.74 1078.1 848.2 1071.11 857.26 1063.67 865.94 1055.68 874.08 1047.2 881.58 1038.38 888.52 1029.18 894.7 1019.65 900.04 1009.9 904.69 999.91 908.44 989.76 911.25 979.48 913.34 969.11 914.49 958.69 914.74 948.23 914.36 937.77 913.17 927.34 911.25 916.93 908.94 906.58 906.09 896.31 902.82 886.1 899.51 875.97 896.05 865.95 892.57 855.99 889.47 846.13 886.63 836.37 884.19 826.67 882.51 817.06 881.45 807.55 881.11 798.08 881.79 788.7 883.3 779.39 885.68 770.11 889.12 760.9 893.38 751.75 898.41 742.62 904.3 733.54 910.76 724.51 917.64 715.49 924.96 706.5 932.37 697.56 939.67 688.61 946.86 679.8 953.48 671.13 959.34 662.45 964.58 653.9 968.77 645.49 971.82 637.06 973.88 628.75 974.66 620.58 974.12 612.38 972.51 604.31 969.61 596.36 965.49 588.39 960.43 580.54 954.32 572.81 947.3 565.04 939.66 557.38 931.36 549.83 922.57 542.24 913.57 534.74 904.36 527.34 895.09 519.88 886.02 512.5 877.14 505.2 868.56 497.83 860.51 490.53 852.92 483.28 845.87 475.95 839.52 468.67 833.78 461.44 828.63 454.12 824.24 446.83 820.42 439.59 817.12 432.25 814.5 424.95 812.3 417.7 810.46 410.37 809.11 403.09 807.97 395.87 806.95 388.6 806.22 381.41 805.46 374.32 804.59 367.21 803.79 360.22 802.75 353.37 801.4 346.54 799.95 339.87 798.09 333.39 795.79 326.97 793.25 320.75 790.22 314.76 786.68 308.84 782.83 303.15 778.45 297.7 773.55 292.32 768.33 287.17 762.61 282.24 756.4 277.37 749.9 272.69 742.96 268.19 735.61 263.7 728 259.35 720.04 255.14 711.77 250.87 703.29 246.7 694.55 242.61 685.59 238.43 676.49 234.31 667.2 230.26 657.78 226.1 648.27 222.01 638.65 218.02 628.96 213.95 619.22 210.01 609.43 206.23 599.62 202.46 589.79 198.9 579.96 195.61 570.14 192.41 560.32 189.54 550.52 187.02 540.76 184.67 531.01 182.71 521.29 181.16 511.63 179.79 501.98 178.83 492.38 178.27 482.82 177.84 473.29 177.75 463.8 177.96 454.36 178.2 444.94 178.65 435.56 179.28 426.24 179.8 416.92 180.41 407.65 181.07 398.43 181.52 389.21 181.97 380.14 182.41 371.23 182.62 362.31 182.85 353.54 183.1 344.92 183.19 336.28 183.38 327.79 183.71 319.44 183.99 311.08 184.49 302.85 185.25 294.75 186.08 286.63 187.23 278.64 188.73 270.78 190.38 262.89 192.4 255.11 194.8 247.45 197.36 239.75 200.29 232.16 203.55 224.66 206.93 217.12 210.61 209.67 214.55 202.3 218.54 194.87 222.73 187.51 227.1 180.22 231.44 172.85 235.9 165.54 240.47 158.29 244.97 150.94 249.55 143.63 254.2 136.37 258.76 129 263.4 121.67 268.13 114.36 272.79 106.96 277.55 99.58 282.44 92.23 287.3 84.8 292.32 77.39 297.5 70.03 302.71 62.59 308.11 55.21 313.72 47.89 319.4 40.53 325.29 33.25 331.41 26.07 337.62 18.88 344.05 11.81 350.69 4.89 357.43 -1.99 364.37 -8.71 371.5 -15.23 378.7 -21.68 386.07 -27.92 393.6 -33.91 401.16 -39.79 408.86 -45.42 416.67 -50.77 424.49 -55.98 432.4 -60.91 440.39 -65.54 448.36 -70.04 456.39 -74.23 464.48 -78.13 472.51 -81.9 480.6 -85.38 488.73 -88.58 496.8 -91.69 504.9 -94.53 513.06 -97.12 521.14 -99.67 529.26 -101.99 537.44 -104.1 545.55 -106.23 553.71 -108.17 561.94 -109.95 570.11 -111.78 578.35 -113.48 586.66 -115.05 594.93 -116.72 603.28 -118.28 611.73 -119.74 620.13 -121.32 628.65 -122.8 637.27 -124.18 645.86 -125.68 654.58 -127.08 663.42 -128.36 672.24 -129.75 681.2 -131 690.3 -132.1 699.39 -133.27 708.64 -134.25 718.03 -135.04" stroke-dasharray="0 4" transform="rotate(20.200000000000003, 711, 400)" opacity="0.92"></path><path d="M727.9 -109.45C737.05 -110.36 746.23 -111.03 755.42 -111.45 764.61 -111.83 773.82 -111.93 783.03 -111.74 792.25 -111.45 801.48 -110.86 810.7 -109.94 819.92 -108.9 829.13 -107.53 838.3 -105.84 847.46 -104.01 856.58 -101.85 865.64 -99.38 874.65 -96.79 883.58 -93.9 892.4 -90.72 901.15 -87.45 909.75 -83.92 918.18 -80.16 926.5 -76.34 934.61 -72.31 942.46 -68.1 950.16 -63.89 957.58 -59.53 964.66 -55.04 971.55 -50.6 978.07 -46.05 984.19 -41.42 990.08 -36.89 995.55 -32.29 1000.57 -27.64 1005.34 -23.11 1009.65 -18.54 1013.51 -13.93 1018.75 -7.21 1026.92 6.2 1030.04 12.93 1032.9 19.54 1038.15 33.02 1040.99 39.93 1043.3 44.53 1045.87 49.25 1048.79 54.11 1052.31 58.95 1056.31 63.95 1060.88 69.11 1066.2 74.29 1072.17 79.65 1078.81 85.18 1086.24 90.76 1094.35 96.53 1103.1 102.48 1112.51 108.5 1122.45 114.71 1132.8 121.1 1143.53 127.57 1154.43 134.23 1165.35 141.06 1176.2 147.97 1186.74 155.05 1196.78 162.29 1206.25 169.61 1214.88 177.08 1222.48 184.69 1229.07 192.37 1234.37 200.18 1238.27 208.11 1240.9 216.09 1242.03 224.18 1241.66 232.37 1240.06 240.61 1237.09 248.93 1232.85 257.32 1227.78 265.74 1221.8 274.23 1215.13 282.76 1208.3 291.32 1201.29 299.92 1194.36 308.55 1188.05 317.19 1182.34 325.85 1177.49 334.52 1173.92 343.2 1171.57 351.88 1170.57 360.54 1171.19 369.22 1173.25 377.87 1176.7 386.49 1181.64 395.12 1187.64 403.61 1194.48 411.95 1202.15 420.3 1210.12 428.5 1218.1 436.55 1226.07 444.6 1233.47 452.5 1240.04 460.25 1245.82 468 1250.34 475.6 1253.44 483.06 1255.24 490.52 1255.43 497.85 1253.99 505.04 1251.13 512.24 1246.72 519.32 1240.85 526.29 1233.83 533.29 1225.64 540.2 1216.49 547.02 1206.68 553.9 1196.3 560.71 1185.56 567.48 1174.77 574.34 1164.02 581.19 1153.49 588.04 1143.43 595.01 1133.9 602.01 1125.01 609.07 1116.94 616.3 1109.66 623.61 1103.19 631.03 1097.69 638.64 1093 646.39 1089.08 654.29 1086.05 662.41 1083.67 670.69 1081.84 679.14 1080.67 687.81 1079.87 696.66 1079.3 705.66 1079.11 714.86 1078.95 724.19 1078.72 733.64 1078.56 743.22 1078.15 752.85 1077.39 762.51 1076.47 772.18 1075.08 781.8 1073.17 791.29 1070.94 800.67 1068.12 809.82 1064.71 818.67 1060.9 827.25 1056.48 835.41 1051.47 843.08 1046.07 850.33 1040.1 856.97 1033.62 862.95 1026.79 868.38 1019.5 873.05 1011.79 876.94 1003.82 880.21 995.5 882.67 986.89 884.3 978.08 885.33 969.05 885.58 959.85 885.08 950.52 884.13 941.07 882.54 931.54 880.39 921.94 878.03 912.31 875.29 902.65 872.29 892.99 869.38 883.33 866.44 873.71 863.58 864.09 861.16 854.53 859.05 845.02 857.35 835.54 856.39 826.12 856.02 816.77 856.32 807.45 857.53 798.2 859.48 789.03 862.18 779.87 865.81 770.79 870.14 761.78 875.11 752.78 880.81 743.84 886.98 734.97 893.48 726.11 900.35 717.3 907.27 708.55 914.08 699.8 920.79 691.2 926.98 682.75 932.5 674.29 937.48 665.97 941.54 657.79 944.59 649.59 946.79 641.52 947.84 633.58 947.73 625.61 946.66 617.76 944.43 610.03 941.08 602.26 936.86 594.6 931.65 587.04 925.55 579.44 918.82 571.93 911.4 564.51 903.44 557.03 895.18 549.64 886.62 542.31 877.86 534.93 869.17 527.6 860.51 520.33 852 512.99 843.84 505.7 835.99 498.45 828.53 491.13 821.62 483.84 815.17 476.6 809.23 469.27 803.92 461.98 799.12 454.74 794.81 447.43 791.12 440.16 787.87 432.96 784.99 425.69 782.64 418.5 780.57 411.39 778.72 404.26 777.24 397.22 775.86 390.3 774.5 383.39 773.35 376.62 772.1 370 770.71 363.42 769.35 357.01 767.74 350.8 765.85 344.65 763.86 338.71 761.51 332.98 758.77 327.33 755.85 321.89 752.51 316.67 748.73 311.53 744.72 306.59 740.27 301.86 735.39 297.17 730.26 292.66 724.71 288.32 718.76 283.99 712.59 279.79 706.04 275.73 699.15 271.63 692.07 267.63 684.68 263.73 677.01 259.77 669.19 255.88 661.13 252.09 652.87 248.23 644.49 244.46 635.93 240.8 627.24 237.1 618.47 233.55 609.59 230.16 600.62 226.78 591.6 223.61 582.51 220.69 573.38 217.83 564.23 215.26 555.05 213 545.86 210.86 536.66 209.05 527.45 207.58 518.26 206.24 509.07 205.24 499.89 204.56 490.74 203.98 481.6 203.68 472.48 203.65 463.4 203.64 454.32 203.83 445.28 204.19 436.27 204.47 427.27 204.87 418.3 205.35 409.38 205.69 400.45 206.09 391.67 206.52 383.02 206.8 374.37 207.14 365.86 207.55 357.47 207.84 349.08 208.24 340.82 208.79 332.68 209.31 324.52 210.02 316.48 210.96 308.56 211.94 300.61 213.2 292.77 214.74 285.04 216.39 277.27 218.35 269.59 220.62 262.01 223.01 254.39 225.7 246.85 228.69 239.38 231.76 231.86 235.09 224.41 238.67 217.03 242.27 209.58 246.08 202.18 250.06 194.83 254.02 187.41 258.12 180.03 262.34 172.69 266.5 165.27 270.76 157.89 275.12 150.53 279.4 143.1 283.78 135.7 288.25 128.33 292.66 120.89 297.18 113.48 301.82 106.11 306.43 98.68 311.19 91.31 316.1 83.99 321.03 76.64 326.14 69.36 331.43 62.17 336.78 54.98 342.33 47.89 348.08 40.93 353.92 34 359.98 27.22 366.24 20.6 372.59 14.06 379.15 7.7 385.9 1.56 392.74 -4.48 399.75 -10.29 406.94 -15.86 414.19 -21.3 421.59 -26.47 429.14 -31.37 436.71 -36.13 444.4 -40.61 452.2 -44.8 460.01 -48.86 467.9 -52.63 475.88 -56.11 483.83 -59.49 491.85 -62.59 499.93 -65.43 507.98 -68.19 516.08 -70.72 524.22 -73.02 532.33 -75.28 540.47 -77.36 548.67 -79.24 556.81 -81.15 565.01 -82.9 573.25 -84.51 581.45 -86.2 589.71 -87.77 598.03 -89.23 606.3 -90.81 614.64 -92.29 623.06 -93.7 631.44 -95.23 639.91 -96.69 648.46 -98.06 656.99 -99.57 665.61 -100.99 674.33 -102.31 683.04 -103.74 691.85 -105.05 700.77 -106.23 709.69 -107.48 718.73 -108.56 727.89 -109.45" stroke-dasharray="11 8" transform="rotate(24.24, 711, 400)" opacity="0.79"></path><path d="M733.09 -83.86C741.89 -84.86 750.67 -85.64 759.4 -86.18 768.13 -86.68 776.82 -86.9 785.46 -86.85 794.09 -86.7 802.67 -86.24 811.17 -85.48 819.66 -84.59 828.07 -83.38 836.38 -81.84 844.66 -80.17 852.82 -78.18 860.85 -75.87 868.82 -73.44 876.63 -70.7 884.26 -67.68 891.81 -64.55 899.16 -61.16 906.27 -57.53 913.26 -53.83 920 -49.92 926.45 -45.81 932.77 -41.68 938.77 -37.39 944.45 -32.96 949.97 -28.56 955.14 -24.05 959.95 -19.44 964.61 -14.9 968.9 -10.3 972.84 -5.63 978.37 1.22 987.7 14.94 991.65 21.78 995.43 28.45 1002.64 41.77 1006.4 48.44 1010.74 55.02 1021.3 68.42 1027.87 75.3 1032.98 79.86 1038.59 84.55 1044.73 89.35 1051.51 94.14 1058.85 99.07 1066.73 104.15 1075.19 109.22 1084.13 114.46 1093.49 119.86 1103.26 125.28 1113.28 130.86 1123.46 136.62 1133.73 142.41 1143.91 148.37 1153.87 154.5 1163.54 160.67 1172.7 167.01 1181.19 173.5 1189 180.05 1195.89 186.75 1201.73 193.59 1206.57 200.48 1210.19 207.51 1212.53 214.66 1213.75 221.86 1213.66 229.18 1212.29 236.6 1209.93 244.06 1206.45 251.62 1201.97 259.27 1196.89 266.95 1191.13 274.71 1184.9 282.53 1178.65 290.38 1172.36 298.28 1166.25 306.23 1160.77 314.2 1155.89 322.21 1151.8 330.24 1148.88 338.29 1147.05 346.36 1146.4 354.44 1147.17 362.53 1149.19 370.62 1152.42 378.72 1156.95 386.81 1162.41 394.81 1168.6 402.7 1175.56 410.6 1182.81 418.39 1190.11 426.08 1197.48 433.76 1204.42 441.35 1210.7 448.83 1216.39 456.32 1221.04 463.72 1224.5 471.02 1226.9 478.34 1227.91 485.57 1227.5 492.73 1225.85 499.91 1222.79 507.04 1218.38 514.11 1212.88 521.22 1206.21 528.3 1198.54 535.35 1190.12 542.47 1181 549.59 1171.35 556.72 1161.43 563.94 1151.31 571.19 1141.17 578.49 1131.22 585.91 1121.53 593.39 1112.21 600.96 1103.45 608.67 1095.24 616.48 1087.66 624.4 1080.83 632.47 1074.69 640.66 1069.22 648.98 1064.55 657.45 1060.52 666.04 1057.07 674.74 1054.31 683.58 1052.02 692.51 1050.11 701.52 1048.7 710.61 1047.51 719.74 1046.46 728.88 1045.68 738.03 1044.88 747.12 1043.97 756.11 1043.11 765.01 1042.02 773.73 1040.63 782.22 1039.12 790.5 1037.22 798.45 1034.9 806.02 1032.35 813.26 1029.32 820.02 1025.81 826.25 1022.02 832.04 1017.73 837.22 1012.97 841.75 1007.92 845.78 1002.41 849.11 996.48 851.72 990.28 853.82 983.7 855.21 976.76 855.9 969.61 856.13 962.16 855.73 954.44 854.74 946.56 853.44 938.47 851.68 930.18 849.51 921.8 847.27 913.27 844.8 904.63 842.19 895.93 839.78 887.14 837.42 878.31 835.21 869.44 833.47 860.55 832.07 851.65 831.08 842.73 830.79 833.82 831.05 824.93 831.9 816.05 833.57 807.18 835.89 798.36 838.84 789.54 842.6 780.77 846.94 772.03 851.81 763.31 857.3 754.62 863.16 745.99 869.28 737.36 875.71 728.77 882.16 720.22 888.49 711.67 894.73 703.26 900.5 694.99 905.68 686.71 910.4 678.55 914.31 670.52 917.32 662.47 919.62 654.54 920.9 646.72 921.15 638.87 920.56 631.13 918.93 623.48 916.28 615.8 912.83 608.2 908.47 600.69 903.25 593.14 897.42 585.66 890.9 578.25 883.8 570.79 876.35 563.39 868.51 556.05 860.39 548.65 852.21 541.3 843.95 533.99 835.7 526.63 827.65 519.3 819.77 512.02 812.13 504.67 804.89 497.37 798 490.11 791.48 482.8 785.48 475.53 779.89 468.32 774.72 461.07 770.1 453.88 765.88 446.76 762.04 439.63 758.69 432.58 755.66 425.64 752.9 418.7 750.54 411.88 748.36 405.19 746.32 398.54 744.54 392.04 742.8 385.71 741.04 379.43 739.42 373.34 737.69 367.44 735.81 361.61 733.95 355.99 731.87 350.57 729.53 342.66 725.76 327.97 716.4 321.16 710.75 316.72 706.69 312.45 702.26 308.34 697.48 304.24 692.52 300.28 687.21 296.44 681.57 292.58 675.76 288.83 669.63 285.19 663.22 281.49 656.66 277.9 649.83 274.41 642.76 270.86 635.57 267.43 628.17 264.12 620.58 260.77 612.89 257.57 605.04 254.54 597.06 251.5 589 248.66 580.83 246.04 572.56 243.46 564.25 241.12 555.86 239.05 547.4 237.05 538.92 235.33 530.39 233.9 521.83 232.55 513.26 231.48 504.65 230.68 496.04 229.94 487.42 229.45 478.79 229.2 470.16 228.95 461.54 228.9 452.91 229.02 444.29 229.1 435.68 229.31 427.07 229.64 418.48 229.87 409.88 230.21 401.4 230.63 393.03 230.95 384.66 231.37 376.39 231.89 368.23 232.34 360.06 232.93 352 233.67 344.03 234.38 336.05 235.28 328.16 236.38 320.36 237.52 312.54 238.89 304.8 240.51 297.14 242.19 289.45 244.13 281.83 246.34 274.28 248.62 266.69 251.16 259.16 253.95 251.69 256.79 244.18 259.86 236.71 263.14 229.29 266.44 221.81 269.91 214.38 273.56 206.98 277.18 199.53 280.94 192.11 284.82 184.72 288.65 177.28 292.59 169.87 296.62 162.5 300.6 155.07 304.67 147.68 308.84 140.33 312.96 132.95 317.18 125.61 321.52 118.33 325.83 111.03 330.28 103.8 334.86 96.65 339.45 89.5 344.21 82.46 349.13 75.52 354.1 68.62 359.25 61.85 364.59 55.23 370.01 48.67 375.62 42.28 381.43 36.08 387.33 29.96 393.43 24.06 399.73 18.38 406.11 12.82 412.68 7.49 419.43 2.42 426.25 -2.51 433.24 -7.19 440.39 -11.59 447.59 -15.87 454.94 -19.87 462.41 -23.6 469.91 -27.21 477.53 -30.55 485.25 -33.62 492.98 -36.61 500.8 -39.34 508.7 -41.84 516.59 -44.28 524.55 -46.51 532.57 -48.54 540.58 -50.56 548.64 -52.41 556.75 -54.09 564.84 -55.82 572.97 -57.42 581.15 -58.9 589.31 -60.47 597.51 -61.94 605.76 -63.33 613.99 -64.84 622.26 -66.27 630.59 -67.65 638.9 -69.16 647.26 -70.6 655.68 -71.99 664.09 -73.51 672.56 -74.95 681.1 -76.31 689.62 -77.78 698.22 -79.15 706.88 -80.4 715.54 -81.71 724.28 -82.87 733.08 -83.86" stroke-dasharray="5 4" transform="rotate(28.28, 711, 400)" opacity="0.61"></path><path d="M732.19 -58.27C740.52 -59.36 748.76 -60.22 756.91 -60.87 765.06 -61.47 773.11 -61.81 781.06 -61.88 788.99 -61.86 796.82 -61.55 804.52 -60.94 812.19 -60.21 819.73 -59.16 827.12 -57.8 834.47 -56.3 841.65 -54.49 848.65 -52.37 855.6 -50.12 862.34 -47.57 868.87 -44.73 875.33 -41.78 881.56 -38.57 887.53 -35.11 893.43 -31.57 899.06 -27.8 904.41 -23.84 909.68 -19.83 914.66 -15.65 919.36 -11.32 923.97 -7 928.3 -2.55 932.35 2 938.2 8.8 948.64 22.64 953.36 29.62 958.01 36.48 967.1 50.14 971.79 56.94 975.2 61.36 978.73 65.81 982.46 70.29 986.56 74.65 990.92 79.06 995.61 83.52 1000.76 87.88 1006.29 92.3 1012.23 96.79 1018.68 101.2 1025.56 105.7 1032.88 110.29 1040.68 114.83 1048.88 119.48 1057.45 124.24 1066.38 128.96 1075.59 133.82 1084.98 138.8 1094.53 143.77 1104.12 148.88 1113.62 154.12 1123 159.38 1132.08 164.78 1140.76 170.32 1149 175.89 1156.6 181.6 1163.45 187.45 1169.57 193.33 1174.76 199.35 1178.92 205.51 1182.18 211.7 1184.31 218.02 1185.31 224.47 1185.36 230.95 1184.31 237.55 1182.19 244.26 1179.32 251 1175.55 257.85 1171.01 264.8 1166.08 271.77 1160.67 278.84 1154.95 285.99 1149.35 293.15 1143.79 300.4 1138.48 307.71 1133.8 315.03 1129.69 322.42 1126.31 329.86 1123.98 337.31 1122.61 344.82 1122.26 352.36 1123.16 359.91 1125.13 367.5 1128.14 375.13 1132.28 382.75 1137.22 390.32 1142.8 397.84 1149.08 405.35 1155.64 412.81 1162.28 420.21 1169.04 427.62 1175.49 434.97 1181.43 442.27 1186.93 449.58 1191.59 456.84 1195.28 464.07 1198.12 471.31 1199.78 478.53 1200.23 485.71 1199.62 492.93 1197.75 500.14 1194.67 507.34 1190.57 514.59 1185.37 521.85 1179.17 529.12 1172.2 536.46 1164.44 543.84 1156.05 551.25 1147.24 558.74 1138.05 566.3 1128.64 573.91 1119.2 581.62 1109.77 589.4 1100.49 597.26 1091.51 605.23 1082.86 613.27 1074.62 621.41 1066.92 629.64 1059.72 637.95 1053.06 646.34 1047.05 654.81 1041.6 663.33 1036.68 671.9 1032.4 680.52 1028.6 689.14 1025.24 697.76 1022.42 706.36 1019.93 714.91 1017.71 723.36 1015.88 731.73 1014.18 739.95 1012.57 747.98 1011.17 755.83 1009.73 763.42 1008.19 770.7 1006.72 777.71 1005.04 784.35 1003.11 790.55 999.98 799.08 991.85 812.92 986.73 818.08 980.95 821.98 967.17 826.09 959.21 826.38 953.6 826.07 947.67 825.27 941.43 824.02 935.04 822.6 928.38 820.85 921.47 818.84 914.44 816.87 907.2 814.78 899.77 812.66 892.26 810.79 884.6 809.05 876.8 807.51 868.95 806.44 860.99 805.71 852.95 805.38 844.88 805.7 836.74 806.5 828.55 807.84 820.35 809.89 812.11 812.5 803.85 815.64 795.59 819.47 787.31 823.78 779.02 828.51 770.74 833.77 762.45 839.32 754.17 845.06 745.89 851.05 737.61 857.04 729.35 862.9 721.08 868.69 712.91 874.05 704.84 878.89 696.77 883.33 688.79 887.07 680.91 890.04 673.01 892.38 665.2 893.85 657.48 894.4 649.74 894.22 642.07 893.11 634.47 891.09 626.85 888.37 619.3 884.78 611.81 880.41 604.28 875.44 596.82 869.81 589.4 863.58 581.95 856.97 574.54 849.92 567.18 842.52 559.78 834.98 552.42 827.26 545.11 819.43 537.76 811.69 530.45 803.98 523.18 796.39 515.88 789.06 508.63 781.95 501.44 775.1 494.22 768.64 487.06 762.49 479.97 756.67 472.88 751.31 465.87 746.29 458.95 741.6 452.04 737.36 445.25 733.43 438.57 729.77 431.92 726.52 425.42 723.48 419.06 720.63 412.76 718.09 406.61 715.67 400.65 713.32 394.75 711.18 389.04 709.03 383.52 706.85 375.47 703.69 360.45 696.75 353.48 692.8 346.79 688.55 334.35 678.59 328.55 672.82 324.74 668.77 321.06 664.41 317.52 659.76 313.94 654.99 310.48 649.92 307.14 644.58 303.74 639.13 300.46 633.4 297.28 627.43 294.05 621.36 290.94 615.05 287.95 608.52 284.93 601.92 282.04 595.11 279.3 588.13 276.55 581.08 273.97 573.88 271.59 566.53 269.21 559.13 267.05 551.61 265.1 543.98 263.2 536.32 261.52 528.57 260.08 520.73 258.69 512.88 257.53 504.96 256.61 496.97 255.72 488.98 255.05 480.94 254.6 472.85 254.15 464.77 253.88 456.64 253.8 448.49 253.69 440.33 253.73 432.15 253.92 423.94 254.06 415.74 254.33 407.6 254.73 399.54 255.07 391.48 255.55 383.5 256.16 375.58 256.73 367.66 257.45 359.81 258.34 352.03 259.21 344.24 260.27 336.51 261.52 328.85 262.79 321.16 264.28 313.54 265.98 305.97 267.72 298.37 269.68 290.83 271.87 283.33 274.1 275.81 276.55 268.33 279.21 260.89 281.89 253.41 284.77 245.98 287.83 238.58 290.89 231.14 294.11 223.74 297.48 216.37 300.82 208.97 304.28 201.6 307.87 194.26 311.4 186.9 315.03 179.58 318.76 172.3 322.44 165 326.21 157.75 330.07 150.56 333.87 143.36 337.78 136.23 341.8 129.18 345.78 122.15 349.88 115.2 354.11 108.36 358.34 101.55 362.71 94.87 367.22 88.32 371.77 81.83 376.49 75.49 381.37 69.33 386.32 63.24 391.44 57.35 396.75 51.65 402.13 46.06 407.71 40.69 413.47 35.54 419.31 30.52 425.35 25.73 431.55 21.2 437.85 16.79 444.31 12.63 450.94 8.74 457.64 4.96 464.49 1.43 471.48 -1.82 478.53 -4.99 485.71 -7.91 493.01 -10.6 500.35 -13.21 507.79 -15.61 515.32 -17.79 522.89 -19.94 530.54 -21.91 538.25 -23.7 545.99 -25.51 553.79 -27.17 561.64 -28.7 569.5 -30.28 577.41 -31.76 585.36 -33.15 593.32 -34.63 601.32 -36.03 609.35 -37.37 617.38 -38.84 625.45 -40.25 633.55 -41.61 641.65 -43.12 649.78 -44.57 657.95 -45.97 666.11 -47.5 674.3 -48.98 682.53 -50.38 690.75 -51.88 699 -53.3 707.28 -54.6 715.56 -55.97 723.86 -57.21 732.18 -58.27" stroke-dasharray="9 8" transform="rotate(32.32, 711, 400)" opacity="0.64"></path><path d="M725.45 -32.69C733.19 -33.83 740.82 -34.78 748.32 -35.51 755.81 -36.2 763.18 -36.65 770.4 -36.84 777.61 -36.95 784.68 -36.77 791.59 -36.32 798.47 -35.74 805.2 -34.86 811.74 -33.68 818.25 -32.37 824.58 -30.76 830.71 -28.84 836.81 -26.79 842.7 -24.46 848.37 -21.84 854 -19.1 859.41 -16.09 864.6 -12.84 869.74 -9.49 874.66 -5.92 879.36 -2.14 884.02 1.69 888.46 5.71 892.69 9.89 896.91 14.09 900.93 18.43 904.78 22.89 908.65 27.33 912.38 31.86 915.98 36.48 919.66 41.04 923.25 45.66 926.81 50.33 930.5 54.92 934.2 59.54 937.95 64.2 941.92 68.75 945.99 73.33 950.21 77.93 954.73 82.42 959.45 86.93 964.42 91.46 969.74 95.88 975.36 100.33 981.28 104.81 987.6 109.19 994.24 113.61 1001.22 118.07 1008.59 122.44 1016.27 126.87 1024.24 131.37 1032.52 135.79 1041.03 140.29 1049.71 144.86 1058.57 149.39 1067.48 154.01 1076.39 158.72 1085.25 163.4 1093.95 168.19 1102.39 173.08 1110.56 177.96 1118.29 182.96 1125.49 188.07 1132.17 193.18 1138.16 198.41 1143.38 203.77 1147.88 209.13 1151.49 214.61 1154.15 220.22 1156.02 225.84 1156.9 231.59 1156.81 237.45 1155.96 243.33 1154.19 249.33 1151.57 255.44 1148.4 261.56 1144.54 267.8 1140.11 274.15 1135.46 280.5 1130.5 286.96 1125.36 293.52 1120.42 300.08 1115.61 306.74 1111.06 313.49 1107.14 320.24 1103.75 327.08 1101.01 334 1099.22 340.92 1098.25 347.92 1098.17 354.99 1099.16 362.06 1101.07 369.21 1103.85 376.43 1107.62 383.65 1112.07 390.85 1117.08 398.03 1122.72 405.22 1128.61 412.4 1134.61 419.56 1140.77 426.72 1146.7 433.87 1152.25 441.02 1157.49 448.18 1162.07 455.33 1165.86 462.48 1168.99 469.66 1171.14 476.84 1172.26 484.03 1172.51 491.25 1171.67 498.5 1169.75 505.76 1166.93 513.07 1163.09 520.41 1158.29 527.79 1152.75 535.22 1146.4 542.7 1139.35 550.23 1131.8 557.81 1123.76 565.45 1115.34 573.15 1106.72 580.9 1097.94 588.72 1089.1 596.58 1080.35 604.51 1071.72 612.48 1063.29 620.49 1055.18 628.55 1047.4 636.64 1039.99 644.73 1033.05 652.84 1026.53 660.94 1020.46 669.01 1014.91 677.05 1009.8 685.02 1005.09 692.9 1000.9 700.71 997.06 708.37 993.55 715.86 990.47 723.21 987.62 730.33 984.97 737.19 982.62 743.84 980.38 750.18 978.18 756.16 975.15 764.51 968.85 778.58 965.36 784.17 957.22 791.68 941.94 796.55 935.66 796.14 928.89 795.02 913.71 791.1 905.35 788.61 899.59 787.01 893.58 785.39 887.35 783.81 881.04 782.53 874.53 781.41 867.83 780.51 861.08 780.08 854.16 779.97 847.1 780.24 839.99 781.09 832.76 782.37 825.42 784.11 818.06 786.47 810.6 789.29 803.06 792.56 795.5 796.4 787.87 800.64 780.18 805.21 772.48 810.21 764.73 815.44 756.94 820.8 749.14 826.36 741.29 831.9 733.41 837.31 725.53 842.66 717.7 847.62 709.93 852.12 702.16 856.29 694.44 859.85 686.77 862.73 679.11 865.1 671.49 866.69 663.92 867.49 656.35 867.66 648.83 867.01 641.35 865.55 633.86 863.47 626.41 860.6 619 857.01 611.58 852.87 604.2 848.08 596.86 842.72 589.51 836.95 582.19 830.73 574.91 824.12 567.62 817.3 560.36 810.22 553.16 802.96 545.94 795.68 538.76 788.34 531.65 781 524.53 773.81 517.47 766.71 510.48 759.76 503.49 753.08 496.59 746.62 489.77 740.39 482.98 734.51 476.28 728.89 469.7 723.55 463.16 718.58 456.74 713.88 450.45 709.44 444.22 705.36 438.14 701.5 432.22 697.85 426.37 694.51 420.68 691.33 415.17 688.27 407.12 684.09 392.05 676.22 385.04 672.35 378.33 668.57 365.87 660.47 360.09 656.03 354.51 651.38 344.05 640.94 339.13 635.1 334.29 628.91 325.09 615.21 320.71 607.7 317.78 602.55 314.95 597.17 312.24 591.57 309.48 585.91 306.85 580.04 304.35 573.98 301.83 567.87 299.45 561.57 297.23 555.11 295.01 548.61 292.95 541.95 291.08 535.15 289.22 528.32 287.55 521.36 286.08 514.28 284.64 507.18 283.39 499.98 282.34 492.68 281.31 485.36 280.48 477.96 279.85 470.47 279.22 462.98 278.78 455.42 278.51 447.78 278.24 440.15 278.14 432.45 278.21 424.69 278.25 416.93 278.46 409.21 278.83 401.52 279.18 393.83 279.68 386.18 280.35 378.57 281 370.95 281.83 363.37 282.82 355.84 283.82 348.29 285 340.78 286.37 333.31 287.76 325.83 289.35 318.39 291.13 310.98 292.93 303.55 294.93 296.16 297.13 288.8 299.34 281.43 301.75 274.08 304.33 266.77 306.92 259.44 309.67 252.14 312.58 244.87 315.48 237.59 318.51 230.34 321.67 223.13 324.79 215.91 328.03 208.72 331.37 201.59 334.65 194.45 338.03 187.36 341.5 180.33 344.91 173.3 348.4 166.34 351.97 159.46 355.49 152.6 359.1 145.83 362.81 139.16 366.47 132.53 370.23 126.01 374.11 119.61 377.96 113.28 381.94 107.08 386.05 101.04 390.18 95.07 394.44 89.27 398.86 83.66 403.31 78.14 407.92 72.81 412.7 67.7 417.54 62.69 422.55 57.89 427.73 53.33 432.98 48.88 438.41 44.66 444 40.67 449.68 36.81 455.53 33.17 461.53 29.78 467.62 26.49 473.86 23.43 480.24 20.6 486.69 17.85 493.29 15.31 500 12.99 506.78 10.7 513.68 8.61 520.67 6.7 527.72 4.8 534.86 3.05 542.09 1.45 549.36 -0.18 556.7 -1.69 564.1 -3.1 571.53 -4.58 579.02 -5.97 586.56 -7.29 594.12 -8.72 601.72 -10.09 609.35 -11.4 617 -12.85 624.68 -14.26 632.38 -15.62 640.09 -17.13 647.83 -18.6 655.57 -20.02 663.33 -21.57 671.09 -23.07 678.86 -24.51 686.63 -26.04 694.41 -27.5 702.17 -28.85 709.94 -30.27 717.7 -31.55 725.44 -32.68" stroke-dasharray="5 10" transform="rotate(36.36, 711, 400)" opacity="0.87"></path><path d="M714.73 -7.1C721.83 -8.29 728.81 -9.3 735.65 -10.11 742.49 -10.88 749.19 -11.42 755.74 -11.72 762.28 -11.94 768.67 -11.9 774.9 -11.59 781.12 -11.17 787.17 -10.46 793.06 -9.47 801.77 -7.65 818.3 -2.37 826.12 1.05 833.73 4.94 848.1 14.11 854.89 19.33 859.38 22.96 863.73 26.77 867.97 30.76 872.24 34.79 876.42 38.97 880.52 43.28 884.69 47.59 888.83 52.01 892.95 56.53 897.19 61.02 901.45 65.59 905.76 70.22 910.25 74.8 914.83 79.42 919.53 84.09 924.46 88.67 929.55 93.29 934.82 97.94 940.37 102.49 946.13 107.06 952.13 111.66 958.42 116.15 964.96 120.67 971.74 125.21 978.81 129.65 986.11 134.12 993.64 138.62 1001.4 143.03 1009.34 147.47 1017.41 151.96 1025.62 156.37 1033.9 160.83 1042.18 165.34 1050.45 169.79 1058.62 174.3 1066.61 178.88 1074.43 183.41 1081.93 188.02 1089.06 192.72 1095.82 197.37 1102.06 202.12 1107.72 206.96 1112.84 211.77 1117.27 216.69 1120.94 221.71 1125.08 229.26 1128.23 244.89 1127.25 252.98 1125.75 258.4 1123.52 263.93 1120.62 269.58 1117.35 275.22 1113.58 280.97 1109.4 286.83 1105.13 292.69 1100.68 298.66 1096.17 304.73 1091.91 310.8 1087.81 316.98 1084 323.26 1080.78 329.53 1078.05 335.91 1075.9 342.38 1074.58 348.85 1073.96 355.42 1074.1 362.09 1075.17 368.75 1077 375.51 1079.57 382.37 1082.99 389.22 1086.98 396.1 1091.44 402.98 1096.47 409.87 1101.74 416.77 1107.11 423.69 1112.67 430.62 1118.07 437.56 1123.19 444.52 1128.12 451.5 1132.53 458.5 1136.31 465.52 1139.59 472.56 1142.08 479.63 1143.71 486.72 1144.64 493.85 1144.64 501 1143.7 508.19 1142 515.41 1139.38 522.67 1135.89 529.96 1131.69 537.29 1126.71 544.66 1121.03 552.06 1114.81 559.5 1108.03 566.97 1100.78 574.47 1093.23 581.99 1085.37 589.54 1077.3 597.11 1069.15 604.69 1060.95 612.27 1052.77 619.84 1044.73 627.4 1036.83 634.93 1029.12 642.41 1021.72 649.86 1014.59 657.23 1007.77 664.5 1001.33 671.7 995.23 678.76 989.47 685.67 984.13 692.45 979.12 699.04 974.42 705.4 970.12 711.59 966.09 717.51 962.29 723.14 957.2 731.08 948.14 744.8 943.98 750.47 936.11 758.79 923.66 765.86 919 766.42 914.09 766.31 903.08 764.34 896.94 762.69 890.46 760.93 876.22 757.3 868.48 755.74 860.42 754.78 843.22 754.62 834.12 755.64 827.96 756.95 821.63 758.62 815.16 760.69 808.65 763.28 802.01 766.25 795.25 769.59 788.46 773.4 781.56 777.51 774.55 781.89 767.53 786.63 760.41 791.52 753.2 796.5 745.98 801.65 738.68 806.75 731.3 811.72 723.92 816.64 716.54 821.22 709.18 825.38 701.82 829.28 694.48 832.64 687.16 835.42 679.84 837.77 672.54 839.45 665.26 840.44 657.98 840.9 650.73 840.64 643.5 839.67 636.27 838.15 629.07 835.94 621.9 833.06 614.73 829.69 607.59 825.71 600.48 821.18 593.37 816.25 586.3 810.86 579.27 805.07 572.25 799.02 565.27 792.68 558.35 786.08 551.43 779.4 544.58 772.57 537.79 765.65 531.02 758.78 524.32 751.92 517.71 745.1 511.13 738.44 504.65 731.89 498.26 725.49 491.92 719.34 485.7 713.36 479.59 707.59 473.55 702.11 467.64 696.84 461.87 691.77 456.17 687.02 450.63 682.47 445.24 678.1 439.93 674.03 434.79 670.12 429.81 666.35 422.56 661.14 409.02 651.45 402.74 646.86 396.72 642.48 385.53 633.66 380.34 629.11 375.31 624.51 365.86 614.64 361.41 609.29 357.02 603.74 348.64 591.63 344.65 585.06 340.67 578.23 333.13 563.52 329.59 555.66 327.23 550.31 324.99 544.79 322.88 539.1 320.75 533.37 318.76 527.48 316.92 521.44 315.08 515.37 313.39 509.15 311.88 502.79 310.36 496.42 309.02 489.91 307.86 483.28 306.71 476.64 305.74 469.88 304.95 463.01 304.17 456.14 303.58 449.16 303.16 442.09 302.76 435.01 302.53 427.84 302.49 420.58 302.46 413.32 302.6 406.06 302.93 398.81 303.26 391.55 303.78 384.31 304.47 377.07 305.18 369.84 306.06 362.61 307.13 355.4 308.22 348.19 309.49 341 310.95 333.82 312.43 326.64 314.09 319.48 315.93 312.34 317.8 305.2 319.84 298.07 322.05 290.97 324.28 283.87 326.67 276.79 329.21 269.74 331.75 262.69 334.43 255.67 337.24 248.68 340.03 241.7 342.94 234.76 345.95 227.86 348.93 220.97 352 214.13 355.16 207.35 358.26 200.58 361.44 193.88 364.7 187.26 367.9 180.66 371.17 174.15 374.51 167.73 377.78 161.35 381.14 155.08 384.57 148.92 387.95 142.83 391.41 136.85 394.97 131.02 398.49 125.26 402.12 119.66 405.85 114.21 409.57 108.86 413.42 103.67 417.38 98.68 421.37 93.78 425.49 89.07 429.75 84.57 434.05 80.17 438.49 75.97 443.09 72 447.74 68.12 452.55 64.47 457.51 61.03 462.53 57.68 467.72 54.55 473.05 51.64 478.45 48.8 484 46.17 489.7 43.73 495.46 41.35 501.36 39.16 507.39 37.14 513.48 35.14 519.69 33.31 526.02 31.62 532.4 29.92 538.89 28.35 545.46 26.89 552.09 25.38 558.8 23.97 565.59 22.65 572.41 21.24 579.3 19.89 586.24 18.61 593.22 17.21 600.24 15.85 607.3 14.54 614.39 13.09 621.51 11.67 628.65 10.29 635.81 8.77 642.98 7.29 650.17 5.84 657.36 4.27 664.56 2.75 671.75 1.28 678.95 -0.27 686.14 -1.75 693.3 -3.14 700.47 -4.59 707.61 -5.91 714.72 -7.1" stroke-dasharray="7 10" transform="rotate(40.400000000000006, 711, 400)" opacity="0.97"></path><path d="M702.97 18.48C709.45 17.25 715.81 16.19 722.05 15.32 728.29 14.49 734.4 13.87 740.39 13.47 749.3 13.1 766.45 13.77 774.69 14.84 782.79 16.36 798.34 20.95 805.81 24 813.18 27.5 827.43 35.86 834.36 40.68 839.01 44.05 843.6 47.61 848.14 51.35 852.77 55.15 857.37 59.11 861.97 63.21 866.69 67.34 871.43 71.59 876.22 75.96 881.15 80.32 886.16 84.77 891.26 89.3 896.54 93.8 901.95 98.36 907.49 102.98 913.23 107.55 919.14 112.16 925.2 116.81 931.49 121.38 937.95 125.99 944.58 130.62 951.42 135.18 958.42 139.75 965.58 144.35 972.9 148.87 980.34 153.4 987.88 157.96 995.51 162.43 1003.18 166.94 1010.85 171.47 1018.51 175.92 1026.09 180.41 1033.53 184.94 1040.84 189.39 1047.93 193.89 1054.72 198.45 1061.25 202.94 1067.39 207.48 1073.07 212.09 1078.36 216.65 1083.11 221.28 1087.27 225.98 1092.42 233.01 1098.54 247.42 1099.42 254.82 1098.82 262.28 1093.74 277.64 1089.54 285.56 1086.34 290.86 1082.79 296.26 1078.97 301.76 1075.17 307.25 1071.29 312.85 1067.41 318.54 1063.82 324.24 1060.42 330.03 1057.3 335.93 1054.73 341.82 1052.59 347.82 1050.96 353.92 1050.06 360.02 1049.75 366.23 1050.07 372.53 1051.18 378.84 1052.92 385.25 1055.28 391.77 1058.37 398.29 1061.93 404.85 1065.89 411.43 1070.34 418.01 1075 424.63 1079.78 431.27 1084.75 437.92 1089.63 444.61 1094.3 451.32 1098.86 458.04 1103.02 464.79 1106.7 471.58 1110.01 478.37 1112.69 485.2 1114.67 492.06 1116.11 498.93 1116.77 505.84 1116.64 512.77 1115.88 519.71 1114.31 526.68 1111.97 533.67 1109.01 540.68 1105.32 547.7 1100.94 554.73 1096.05 561.77 1090.58 568.81 1084.59 575.85 1078.23 582.88 1071.49 589.89 1064.42 596.88 1057.17 603.84 1049.73 610.76 1042.16 617.62 1034.59 624.43 1027 631.16 1019.45 637.79 1012.04 644.35 1004.76 650.79 997.65 657.07 990.77 663.26 984.11 669.26 977.69 675.07 971.57 680.74 965.71 686.17 960.1 691.36 954.81 696.37 949.76 701.1 944.95 705.53 938.29 711.71 926.29 722.04 920.82 726.14 910.89 731.84 896.57 736.1 891.73 736.16 881.63 734.88 865.04 731.43 858.89 730.15 852.52 729.23 838.78 728.4 831.42 728.71 823.83 729.85 807.72 734.24 799.24 737.54 793.5 740.3 787.62 743.36 781.58 746.7 775.53 750.43 769.34 754.4 763.02 758.56 756.69 763.01 750.24 767.56 743.66 772.17 737.08 776.91 730.39 781.58 723.59 786.14 716.79 790.64 709.97 794.84 703.13 798.68 696.3 802.29 689.45 805.45 682.6 808.1 675.76 810.4 668.91 812.13 662.07 813.26 655.24 813.95 648.41 814.02 641.6 813.47 634.79 812.45 628.01 810.81 621.24 808.58 614.5 805.91 607.77 802.68 601.08 798.93 594.41 794.82 587.77 790.25 581.18 785.27 574.61 780.03 568.1 774.46 561.64 768.6 555.22 762.6 548.86 756.4 542.58 750.05 536.33 743.67 530.17 737.21 524.11 730.72 518.09 724.29 512.17 717.9 506.37 711.56 500.62 705.37 495 699.28 489.5 693.31 484.07 687.56 478.77 681.94 473.62 676.48 468.54 671.26 463.6 666.19 458.82 661.28 454.12 656.61 449.56 652.09 445.17 647.71 438.77 641.54 426.83 630.03 421.29 624.6 415.96 619.46 406.04 609.43 401.41 604.45 396.9 599.55 388.4 589.45 384.37 584.18 380.36 578.83 372.68 567.46 369 561.41 365.3 555.19 358.24 541.93 354.88 534.88 351.55 527.64 345.38 512.33 342.56 504.27 340.71 498.83 339 493.25 337.43 487.52 335.85 481.78 334.43 475.9 333.17 469.89 331.91 463.87 330.83 457.72 329.91 451.45 329.01 445.17 328.29 438.78 327.75 432.27 327.24 425.76 326.91 419.14 326.77 412.42 326.67 405.69 326.75 398.95 327.03 392.18 327.34 385.42 327.85 378.65 328.54 371.87 329.27 365.09 330.18 358.3 331.29 351.52 332.43 344.74 333.75 337.96 335.25 331.18 336.79 324.42 338.5 317.66 340.39 310.91 342.29 304.17 344.36 297.45 346.59 290.74 348.83 284.05 351.21 277.38 353.73 270.74 356.25 264.11 358.89 257.52 361.64 250.97 364.37 244.43 367.2 237.95 370.13 231.51 373.01 225.11 375.97 218.76 379.01 212.48 381.99 206.24 385.04 200.07 388.16 193.99 391.2 187.96 394.31 182.02 397.48 176.19 400.58 170.41 403.74 164.75 406.96 159.21 410.12 153.74 413.35 148.41 416.65 143.23 419.9 138.12 423.24 133.16 426.65 128.37 431.79 121.4 442.53 108.48 448.17 102.56 453.95 96.96 466.18 86.87 472.65 82.37 479.32 78.17 493.41 70.78 500.83 67.55 508.46 64.53 524.44 59.23 532.76 56.89 538.4 55.34 544.14 53.89 549.98 52.54 555.87 51.12 561.84 49.77 567.9 48.49 574 47.12 580.17 45.79 586.41 44.51 592.68 43.12 599 41.76 605.37 40.43 611.77 38.97 618.21 37.53 624.68 36.13 631.17 34.59 637.68 33.09 644.2 31.62 650.74 30.03 657.29 28.49 663.83 27.01 670.38 25.43 676.92 23.93 683.45 22.52 689.98 21.05 696.49 19.7 702.96 18.48" stroke-dasharray="5 2" transform="rotate(44.44, 711, 400)" opacity="0.09"></path><path d="M693.43 44.07C702.24 42.27 719.44 39.58 727.82 38.75 736.11 38.24 752.25 38.5 760.11 39.3 767.9 40.53 783.11 44.41 790.57 47.07 800.56 51.12 810.38 56.13 820.11 61.99 830.09 68.22 840.12 75.2 850.29 82.82 860.9 90.61 871.8 98.92 883.08 107.63 894.92 116.32 907.23 125.3 920.01 134.51 933.33 143.53 947.03 152.71 961 162 975.18 171.03 989.29 180.16 1003.06 189.38 1016.39 198.33 1028.84 207.4 1040.02 216.6 1049.98 225.56 1058.13 234.7 1064.17 244.03 1068.45 253.19 1070.41 262.6 1069.99 272.28 1068.03 281.84 1064.09 291.71 1058.52 301.9 1055.53 306.97 1052.32 312.13 1048.95 317.37 1045.66 322.6 1042.36 327.92 1039.12 333.34 1036.18 338.74 1033.43 344.24 1030.96 349.84 1028.97 355.43 1027.37 361.11 1026.2 366.9 1025.65 372.68 1025.59 378.56 1026.06 384.55 1027.19 390.53 1028.84 396.61 1031 402.8 1033.77 408.98 1036.92 415.2 1040.41 421.45 1044.32 427.71 1048.42 433.99 1052.63 440.3 1057.03 446.61 1061.38 452.96 1065.58 459.32 1069.75 465.7 1073.61 472.1 1077.1 478.52 1080.34 484.94 1083.08 491.39 1085.27 497.85 1087.05 504.32 1088.2 510.8 1088.69 517.28 1088.15 530.25 1084.88 543.23 1079.04 556.13 1071.3 568.97 1061.45 581.67 1049.91 594.11 1037.36 606.38 1023.88 618.27 1009.89 629.65 995.94 640.69 982.1 651.04 968.66 660.58 955.94 669.57 943.9 677.58 932.58 684.48 922.22 690.71 912.53 695.75 903.45 699.54 895.16 702.7 887.24 704.68 879.54 705.56 872.34 706.09 865.1 705.8 857.7 704.84 850.52 704.1 842.99 703.16 835.02 702.25 827.09 702.23 818.62 702.71 809.59 703.9 802.72 705.7 788.23 711.06 780.62 714.65 775.48 717.5 770.2 720.58 764.78 723.88 759.35 727.49 753.79 731.28 748.09 735.2 742.39 739.35 736.56 743.56 730.61 747.8 724.66 752.13 718.59 756.4 712.41 760.55 706.23 764.65 700.01 768.48 693.77 772 687.53 775.34 681.27 778.28 675 780.79 668.73 783.02 662.46 784.75 656.18 785.98 649.92 786.85 643.65 787.18 637.4 786.97 631.17 786.38 624.95 785.24 618.76 783.58 612.58 781.54 606.44 778.99 600.33 775.97 588.19 768.95 576.24 760.32 564.54 750.36 553.01 739.7 541.78 728.23 530.93 716.24 520.29 704.25 510.09 692.18 500.39 680.23 490.93 668.79 482 657.7 473.64 647.04 465.5 637.12 457.92 627.64 450.92 618.59 444.05 610.23 437.7 602.17 431.84 594.32 425.98 586.99 420.53 579.68 415.46 572.31 410.23 565.25 405.3 557.95 400.66 550.35 395.76 542.88 391.11 534.99 386.74 526.65 382.11 518.33 377.78 509.49 373.8 500.14 370.77 493.05 365.21 478.19 362.71 470.43 360.34 462.53 356.33 446.09 354.73 437.56 353.74 431.83 352.93 425.98 352.29 420.02 351.69 414.06 351.28 407.99 351.06 401.81 350.89 395.63 350.91 389.42 351.14 383.19 351.42 376.96 351.89 370.71 352.56 364.45 353.28 358.19 354.2 351.91 355.3 345.64 356.46 339.37 357.79 333.1 359.31 326.83 360.87 320.57 362.6 314.32 364.49 308.08 366.41 301.86 368.49 295.65 370.72 289.47 375.2 277.16 380.2 264.97 385.65 252.97 391 241.08 396.7 229.42 402.69 218.07 408.45 206.89 414.43 196.06 420.62 185.68 426.52 175.53 432.63 165.88 438.93 156.8 445 148 451.34 139.81 457.95 132.3 464.44 125.08 471.3 118.54 478.55 112.71 485.79 107.11 493.49 102.17 501.64 97.88 509.89 93.69 518.62 90.05 527.8 86.92 537.12 83.69 546.89 80.84 557.06 78.31 567.37 75.48 578.03 72.84 589 70.37 597.32 68.27 614.28 64.02 622.91 61.86 628.68 60.31 634.5 58.78 640.34 57.3 646.2 55.7 652.08 54.15 657.97 52.66 663.87 51.08 669.78 49.57 675.69 48.15 681.6 46.68 687.52 45.31 693.42 44.07" stroke-dasharray="9 0" transform="rotate(48.48, 711, 400)" opacity="0.65"></path><path d="M688.73 69.66C699.56 67.14 710.23 65.28 720.71 64.13 731.2 63.2 741.53 63.12 751.71 63.92 761.95 65.11 772.09 67.25 782.16 70.3 792.37 73.78 802.6 78.16 812.9 83.36 823.45 88.94 834.17 95.25 845.1 102.23 856.37 109.42 867.93 117.17 879.78 125.36 892 133.61 904.5 142.22 917.22 151.1 930.15 159.9 943.15 168.9 956.04 178.05 968.8 187.04 981.12 196.15 992.76 205.36 1003.73 214.36 1013.6 223.48 1022.08 232.69 1029.37 241.7 1034.94 250.85 1038.61 260.15 1040.86 269.27 1041.19 278.59 1039.63 288.1 1037.02 297.49 1032.95 307.12 1027.74 317.01 1022.45 326.81 1016.82 336.9 1011.32 347.29 1007.01 357.63 1003.65 368.3 1001.59 379.3 1001.63 390.27 1003.34 401.6 1006.72 413.27 1012.12 424.94 1018.58 436.69 1025.66 448.5 1033.52 460.31 1040.99 472.18 1047.58 484.05 1053.52 495.93 1057.75 507.79 1060.01 519.58 1060.72 531.33 1059.14 542.97 1055.35 554.41 1049.9 565.73 1042.47 576.79 1033.33 587.47 1023.08 597.93 1011.66 607.9 999.42 617.28 986.83 626.31 973.94 634.63 961.02 642.12 948.4 649.15 936.06 655.27 924.15 660.4 912.85 665.04 902.06 668.67 891.77 671.31 882.12 673.56 872.88 674.93 863.97 675.49 855.57 675.97 847.32 675.91 839.13 675.46 831.24 675.39 823.26 675.3 815.08 675.36 807.05 676.3 798.72 677.74 790.04 679.8 781.4 683.08 772.35 687.14 762.88 691.98 753.4 698.01 743.49 704.68 733.14 711.81 722.78 719.63 712 727.46 700.84 734.96 689.67 742.32 678.41 748.58 667.11 753.49 655.85 757.49 644.58 759.75 633.37 760.21 622.23 759.4 611.2 756.72 600.33 752.3 589.57 746.71 579.03 739.61 568.77 731.21 558.66 722.08 548.87 712.02 539.48 701.3 530.26 690.37 521.47 679.13 513.15 667.77 505.01 656.64 497.35 645.63 490.2 634.85 483.18 624.55 476.65 614.55 470.59 604.86 464.58 595.73 458.99 586.87 453.8 578.24 448.52 570.08 443.57 562.03 438.91 554.04 434.06 546.38 429.43 538.65 425.03 530.78 420.35 523.1 415.88 515.18 411.62 506.98 407.11 498.85 402.85 490.38 398.9 481.52 394.77 472.69 391.03 463.45 387.72 453.79 384.39 444.12 381.6 434.04 379.41 423.54 377.35 413.04 375.97 402.13 375.34 390.84 374.95 379.56 375.36 368.18 376.55 356.76 378 345.35 380.22 333.93 383.14 322.54 386.27 311.2 390.05 299.92 394.42 288.76 398.86 277.68 403.8 266.75 409.17 256.06 414.45 245.48 420.08 235.16 425.97 225.19 431.65 215.37 437.54 205.95 443.61 196.97 449.4 188.2 455.35 179.92 461.46 172.18 467.3 164.68 473.34 157.74 479.59 151.42 485.64 145.3 491.97 139.78 498.59 134.86 505.12 130.08 512.01 125.85 519.25 122.15 526.49 118.45 534.14 115.2 542.17 112.35 550.26 109.33 558.75 106.6 567.61 104.12 576.55 101.31 585.84 98.65 595.45 96.11 605.12 93.14 615.08 90.25 625.27 87.46 635.5 84.23 645.94 81.13 656.53 78.22 667.14 75.02 677.88 72.13 688.72 69.66" stroke-dasharray="2 7" transform="rotate(52.52, 711, 400)" opacity="0.53"></path><path d="M690.16 95.25C700.2 92.74 710.22 90.84 720.2 89.59 730.21 88.52 740.22 88.22 750.22 88.71 760.29 89.54 770.41 91.22 780.59 93.74 790.89 96.65 801.31 100.39 811.87 104.9 822.61 109.77 833.54 115.36 844.65 121.6 855.95 128.09 867.45 135.15 879.08 142.68 890.86 150.34 902.7 158.39 914.5 166.76 926.26 175.15 937.79 183.78 948.93 192.61 959.7 201.36 969.81 210.27 979.04 219.3 987.53 228.2 994.85 237.22 1000.81 246.34 1005.74 255.31 1009.14 264.4 1010.94 273.59 1011.68 282.66 1010.9 291.86 1008.69 301.21 1005.85 310.45 1001.98 319.87 997.37 329.47 992.92 339 988.36 348.75 984.03 358.7 980.82 368.62 978.43 378.79 977.13 389.19 977.57 399.58 979.35 410.22 982.43 421.12 987.19 432.02 992.78 442.92 998.87 453.78 1005.69 464.64 1012.26 475.46 1018.19 486.2 1023.76 496.91 1028.02 507.51 1030.75 517.93 1032.35 528.29 1032.1 538.43 1029.99 548.27 1026.52 557.98 1021.28 567.32 1014.44 576.21 1006.51 584.88 997.32 593.02 987.14 600.55 976.39 607.78 965.05 614.32 953.35 620.1 941.6 625.54 929.8 630.18 918.11 634 906.71 637.51 895.57 640.23 884.75 642.19 874.36 643.98 864.3 645.15 854.54 645.77 845.19 646.49 836.06 646.9 827.1 647.12 818.45 647.8 809.86 648.57 801.27 649.55 792.86 651.35 784.35 653.59 775.7 656.36 767.13 660.14 758.34 664.53 749.32 669.49 740.33 675.4 731.06 681.74 721.52 688.37 711.97 695.54 702.15 702.62 692.07 709.37 681.98 716 671.89 721.68 661.83 726.21 651.8 730.02 641.83 732.37 631.98 733.21 622.18 733.02 612.54 731.24 603.1 727.94 593.75 723.64 584.64 717.97 575.83 711.07 567.13 703.46 558.76 694.89 550.76 685.57 542.89 675.92 535.41 665.79 528.35 655.37 521.39 644.96 514.84 634.47 508.72 624 502.65 613.81 496.97 603.74 491.67 593.86 486.33 584.36 481.32 575.06 476.61 565.94 471.75 557.2 467.14 548.6 462.75 540.11 458.12 531.91 453.68 523.73 449.4 515.53 444.85 507.54 440.47 499.44 436.27 491.19 431.82 483.06 427.6 474.72 423.64 466.15 419.54 457.63 415.78 448.83 412.44 439.75 409.08 430.68 406.24 421.3 403.96 411.62 401.83 401.94 400.36 391.95 399.62 381.68 399.14 371.41 399.45 361.1 400.53 350.81 401.88 340.53 403.99 330.29 406.79 320.12 409.81 310 413.47 299.98 417.71 290.13 422.05 280.35 426.87 270.77 432.11 261.44 437.31 252.22 442.84 243.29 448.64 234.71 454.27 226.26 460.1 218.21 466.1 210.58 471.85 203.12 477.75 196.12 483.77 189.63 489.53 183.29 495.43 177.45 501.49 172.15 507.32 166.96 513.35 162.28 519.59 158.09 525.67 153.95 532.03 150.26 538.65 146.99 545.19 143.64 552.06 140.64 559.24 137.94 566.4 135.04 573.9 132.35 581.73 129.85 589.57 127.02 597.75 124.31 606.24 121.69 614.75 118.68 623.56 115.75 632.65 112.9 641.74 109.69 651.11 106.6 660.7 103.7 670.3 100.56 680.13 97.71 690.16 95.25" stroke-dasharray="6 5" transform="rotate(56.56, 711, 400)" opacity="0.78"></path><path d="M697.34 120.84C706.71 118.38 716.16 116.47 725.67 115.14 735.2 113.96 744.83 113.47 754.54 113.69 764.3 114.18 774.18 115.44 784.16 117.45 794.23 119.79 804.43 122.89 814.74 126.71 825.15 130.85 835.67 135.68 846.27 141.12 856.94 146.82 867.64 153.09 878.31 159.84 888.94 166.76 899.42 174.1 909.65 181.79 919.66 189.56 929.25 197.62 938.26 205.91 946.8 214.21 954.58 222.69 961.42 231.34 967.56 239.92 972.6 248.65 976.43 257.47 979.43 266.22 981.17 275.08 981.63 284.03 981.37 292.9 979.98 301.87 977.56 310.95 974.82 319.95 971.41 329.08 967.55 338.33 964.01 347.52 960.5 356.86 957.25 366.33 955.02 375.78 953.48 385.38 952.81 395.13 953.57 404.87 955.36 414.77 958.15 424.82 962.3 434.86 967.08 444.81 972.26 454.63 978.11 464.45 983.78 474.13 989 483.63 994.07 493.11 998.17 502.37 1001.1 511.37 1003.25 520.31 1003.95 528.94 1003.14 537.21 1001.29 545.35 997.91 553.09 993.13 560.34 987.38 567.42 980.4 573.98 972.38 579.95 963.71 585.7 954.28 590.84 944.28 595.33 934.01 599.6 923.42 603.23 912.68 606.22 901.97 609.05 891.26 611.3 880.66 613 870.28 614.7 860.05 615.99 850.04 616.93 840.28 618.1 830.72 619.11 821.34 620.05 812.2 621.49 803.18 623.06 794.27 624.85 785.52 627.37 776.8 630.25 768.09 633.54 759.47 637.65 750.8 642.2 742.06 647.16 733.37 652.84 724.56 658.8 715.63 664.9 706.72 671.39 697.67 677.76 688.51 683.78 679.35 689.71 670.29 694.82 661.36 698.95 652.43 702.53 643.66 704.9 635.06 706.01 626.49 706.31 618.13 705.26 610.01 702.93 601.94 699.76 594.13 695.37 586.62 689.88 579.17 683.72 572.03 676.64 565.24 668.79 558.5 660.54 552.11 651.72 546.07 642.47 540.06 633.11 534.38 623.49 529.05 613.75 523.68 604.09 518.61 594.42 513.84 584.79 508.96 575.38 504.32 566.05 499.91 556.85 495.31 547.9 490.88 539.06 486.62 530.32 482.12 521.81 477.75 513.37 473.52 504.96 469.03 496.73 464.69 488.48 460.51 480.19 456.11 472.01 451.92 463.75 447.98 455.37 443.93 447.05 440.2 438.58 436.86 429.95 433.53 421.35 430.69 412.56 428.39 403.58 426.24 394.62 424.73 385.46 423.91 376.12 423.36 366.79 423.56 357.5 424.49 348.3 425.72 339.1 427.66 330 430.27 321.05 433.13 312.12 436.59 303.35 440.62 294.78 444.77 286.27 449.41 277.99 454.45 269.98 459.51 262.05 464.89 254.43 470.55 247.15 476.09 239.97 481.85 233.16 487.78 226.76 493.51 220.45 499.38 214.56 505.36 209.11 511.11 203.75 516.99 198.81 522.98 194.32 528.74 189.86 534.65 185.82 540.71 182.17 546.59 178.5 552.66 175.17 558.93 172.17 565.08 169.04 571.47 166.17 578.11 163.53 584.66 160.67 591.5 157.96 598.62 155.4 605.7 152.53 613.07 149.75 620.74 147.06 628.39 144.01 636.33 141.05 644.57 138.18 652.79 135 661.31 131.95 670.11 129.1 678.89 126.04 687.98 123.25 697.34 120.84" stroke-dasharray="6 1" transform="rotate(60.599999999999994, 711, 400)" opacity="0.76"></path><path d="M708.28 146.42C717.03 144.04 725.89 142.15 734.84 140.79 743.81 139.53 752.89 138.89 762.06 138.86 771.26 139.06 780.57 139.93 789.95 141.46 799.37 143.27 808.86 145.76 818.39 148.89 827.93 152.31 837.48 156.35 846.98 160.97 856.43 165.84 865.77 171.24 874.92 177.12 883.91 183.19 892.61 189.68 900.91 196.54 908.91 203.52 916.38 210.82 923.2 218.38 929.57 226 935.17 233.85 939.88 241.87 944.03 249.9 947.22 258.09 949.39 266.41 950.99 274.7 951.6 283.1 951.24 291.6 950.46 300.06 948.88 308.61 946.58 317.23 944.22 325.83 941.44 334.5 938.41 343.24 935.78 351.97 933.25 360.77 930.99 369.64 929.6 378.5 928.78 387.44 928.62 396.44 929.6 405.44 931.36 414.51 933.87 423.62 937.45 432.74 941.5 441.68 945.84 450.42 950.76 459.15 955.57 467.67 960.06 475.94 964.54 484.18 968.31 492.15 971.22 499.81 973.63 507.4 974.93 514.66 975.06 521.53 974.42 528.3 972.55 534.66 969.48 540.57 965.63 546.35 960.67 551.66 954.72 556.45 948.14 561.12 940.76 565.28 932.7 568.91 924.26 572.45 915.34 575.49 906.07 578.05 896.66 580.6 887.06 582.73 877.36 584.5 867.69 586.37 858.01 587.99 848.4 589.41 838.9 591.11 829.5 592.76 820.22 594.41 811.08 596.53 802.05 598.79 793.14 601.25 784.35 604.3 775.65 607.64 767.02 611.27 758.48 615.55 749.98 620.12 741.53 624.95 733.11 630.31 724.7 635.82 716.31 641.37 707.93 647.2 699.54 652.86 691.16 658.19 682.77 663.45 674.58 667.99 666.6 671.72 658.61 675.03 650.84 677.35 643.3 678.63 635.77 679.29 628.47 678.83 621.44 677.29 614.41 675.09 607.65 671.83 601.18 667.6 594.72 662.8 588.54 657.14 582.67 650.72 576.78 643.91 571.18 636.49 565.88 628.59 560.53 620.47 555.44 612.01 550.62 603.3 545.71 594.55 541.02 585.65 536.56 576.68 531.93 567.79 527.49 558.88 523.21 550 518.73 541.26 514.38 532.57 510.15 523.94 505.7 515.47 501.35 507.04 497.13 498.67 492.68 490.43 488.37 482.21 484.21 474.01 479.88 465.91 475.75 457.79 471.87 449.64 467.91 441.55 464.26 433.41 460.99 425.21 457.75 417.04 454.96 408.79 452.69 400.46 450.58 392.14 449.06 383.74 448.19 375.26 447.58 366.79 447.68 358.44 448.47 350.24 449.53 342.05 451.27 334.02 453.64 326.17 456.26 318.34 459.46 310.72 463.19 303.33 467.09 295.97 471.44 288.86 476.21 282.04 481.02 275.26 486.18 268.78 491.62 262.63 497 256.52 502.61 250.76 508.4 245.36 514.06 240 519.87 235 525.8 230.36 531.55 225.76 537.41 221.5 543.37 217.6 549.14 213.67 555.02 210.07 561.02 206.78 566.84 203.4 572.81 200.29 578.92 197.43 584.89 194.41 591.04 191.58 597.38 188.93 603.62 186.05 610.07 183.3 616.75 180.66 623.36 177.74 630.22 174.9 637.33 172.15 644.4 169.1 651.74 166.13 659.35 163.28 666.93 160.16 674.8 157.19 682.96 154.41 691.1 151.46 699.54 148.77 708.28 146.42" stroke-dasharray="1 3" transform="rotate(64.64, 711, 400)" opacity="0.08"></path><path d="M719.97 172.01C728.06 169.74 736.24 167.9 744.47 166.52 752.72 165.23 761.03 164.47 769.39 164.25 777.75 164.19 786.15 164.72 794.56 165.82 802.95 167.15 811.33 169.06 819.64 171.54 827.91 174.26 836.08 177.53 844.07 181.32 851.96 185.34 859.63 189.86 866.98 194.82 874.15 199.97 880.94 205.53 887.25 211.45 893.28 217.51 898.76 223.9 903.6 230.56 908.08 237.32 911.85 244.32 914.88 251.52 917.49 258.78 919.34 266.21 920.4 273.78 921.1 281.37 921.08 289.08 920.36 296.89 919.46 304.71 918.01 312.61 916.1 320.57 914.27 328.53 912.21 336.55 910.03 344.62 908.27 352.68 906.63 360.78 905.23 368.9 904.55 377.03 904.3 385.18 904.54 393.33 905.68 401.49 907.36 409.65 909.58 417.78 912.64 425.91 916.02 433.82 919.6 441.49 923.67 449.15 927.66 456.55 931.42 463.67 935.25 470.77 938.59 477.57 941.29 484.04 944.51 493.52 945.83 510.61 943.72 518.15 941.4 522.98 938.15 527.4 934.02 531.41 929.37 535.37 923.94 538.93 917.83 542.1 911.33 545.26 904.28 548.06 896.78 550.53 889.04 553.06 880.97 555.33 872.67 557.36 864.27 559.55 855.73 561.6 847.1 563.55 838.48 565.79 829.83 568.02 821.2 570.28 812.63 572.95 804.1 575.74 795.64 578.68 787.24 582.1 778.92 585.7 770.68 589.5 762.49 593.78 754.38 598.24 746.35 602.82 738.36 607.79 730.43 612.81 722.58 617.79 714.74 622.96 706.97 627.94 699.27 632.61 691.57 637.21 684.11 641.21 676.91 644.53 669.7 647.54 662.73 649.75 656.02 651.11 649.29 652 642.81 652 636.59 651.09 630.35 649.68 624.36 647.38 618.63 644.26 612.86 640.66 607.35 636.29 602.08 631.24 596.76 625.82 591.67 619.81 586.82 613.3 581.87 606.55 577.13 599.39 572.59 591.91 567.93 584.32 563.43 576.5 559.08 568.51 554.58 560.5 550.21 552.38 545.96 544.21 541.52 536.08 537.19 527.93 532.96 519.79 528.53 511.72 524.21 503.67 520 495.65 515.62 487.71 511.36 479.8 507.28 471.92 503.06 464.11 499.05 456.31 495.29 448.54 491.48 440.81 487.98 433.09 484.83 425.38 481.74 417.69 479.07 410 476.88 402.31 474.85 394.63 473.37 386.94 472.48 379.27 471.83 371.59 471.83 364.1 472.45 356.82 473.34 349.53 474.85 342.45 476.94 335.58 479.27 328.72 482.14 322.09 485.51 315.71 489.06 309.33 493.05 303.22 497.44 297.37 501.91 291.54 506.73 285.99 511.84 280.74 516.95 275.5 522.3 270.55 527.85 265.91 533.33 261.27 538.98 256.92 544.76 252.88 550.43 248.81 556.21 245.02 562.1 241.51 567.84 237.93 573.69 234.6 579.63 231.51 585.43 228.3 591.34 225.29 597.37 222.48 603.27 219.49 609.3 216.65 615.47 213.96 621.54 211.04 627.78 208.24 634.19 205.53 640.52 202.58 647.05 199.71 653.77 196.94 660.45 193.91 667.35 190.98 674.47 188.18 681.56 185.16 688.9 182.29 696.48 179.62 704.05 176.81 711.88 174.26 719.97 172.01" stroke-dasharray="5 2" transform="rotate(68.68, 711, 400)" opacity="0.16"></path><path d="M729.19 197.6C736.54 195.46 743.9 193.71 751.25 192.35 758.61 191.06 765.96 190.23 773.26 189.84 780.57 189.59 787.82 189.83 794.98 190.55 802.12 191.45 809.14 192.84 816.01 194.72 822.81 196.79 829.41 199.35 835.77 202.35 842.01 205.55 847.96 209.19 853.55 213.23 858.97 217.43 863.98 222.02 868.53 226.95 872.86 232.02 876.67 237.41 879.94 243.06 882.95 248.83 885.39 254.84 887.23 261.06 888.82 267.35 889.84 273.84 890.28 280.47 890.54 287.15 890.3 293.97 889.59 300.89 888.86 307.84 887.77 314.88 886.4 321.98 885.19 329.1 883.87 336.27 882.49 343.48 881.51 350.69 880.64 357.93 879.95 365.17 879.84 372.42 880.04 379.67 880.57 386.89 881.78 394.11 883.36 401.3 885.3 408.43 887.87 415.56 890.65 422.46 893.54 429.1 896.83 435.74 900.06 442.12 903.11 448.23 906.29 454.32 909.1 460.13 911.47 465.63 914.54 473.71 917.02 488.27 916.22 494.73 914.07 500.85 905.55 511.53 899.34 516.16 894.66 519.2 889.43 521.99 883.73 524.57 877.79 527.25 871.45 529.76 864.79 532.13 857.98 534.68 850.93 537.16 843.69 539.58 836.38 542.26 828.94 544.95 821.43 547.67 813.89 550.72 806.32 553.86 798.74 557.08 791.18 560.66 783.63 564.35 776.12 568.15 768.63 572.28 761.19 576.49 753.82 580.74 746.47 585.26 739.18 589.75 731.97 594.14 724.77 598.67 717.65 602.99 710.61 607.02 703.58 611 696.79 614.47 690.24 617.38 683.69 620.07 677.37 622.11 671.29 623.47 662.25 624.66 645.25 622.85 637.27 619.9 631.97 617.33 626.88 614.1 621.98 610.28 617 606.14 612.21 601.46 607.59 596.31 602.88 590.92 598.31 585.12 593.89 578.97 589.35 572.68 584.93 566.1 580.63 559.3 576.19 552.43 571.85 545.38 567.6 538.22 563.21 531.03 558.9 523.75 554.7 516.42 550.34 509.11 546.09 501.77 541.96 494.43 537.7 487.11 533.58 479.8 529.64 472.51 525.62 465.25 521.8 458.02 518.23 450.81 514.65 443.64 511.36 436.49 508.4 429.39 505.52 422.3 503.03 415.24 500.97 408.23 499.06 401.23 497.65 394.26 496.76 387.36 496.09 380.45 496 373.75 496.47 367.28 497.17 360.8 498.43 354.55 500.21 348.52 502.2 342.49 504.7 336.69 507.65 331.13 510.78 325.56 514.32 320.24 518.25 315.16 522.28 310.08 526.65 305.24 531.3 300.66 536.01 296.07 540.96 291.71 546.13 287.62 551.28 283.48 556.62 279.59 562.11 275.93 567.54 272.22 573.11 268.73 578.78 265.45 584.37 262.08 590.07 258.9 595.86 255.9 601.55 252.78 607.35 249.82 613.23 247 619.02 244.02 624.91 241.16 630.91 238.42 636.83 235.49 642.87 232.65 649.03 229.91 655.13 226.97 661.37 224.12 667.75 221.37 674.09 218.42 680.59 215.58 687.26 212.87 693.89 209.99 700.71 207.27 707.69 204.75 714.67 202.11 721.84 199.72 729.19 197.6" stroke-dasharray="5 4" transform="rotate(72.72, 711, 400)" opacity="0.86"></path><path d="M733.39 223.19C739.88 221.21 746.31 219.57 752.65 218.28 759 217.03 765.25 216.15 771.4 215.66 780.52 215.26 797.99 216.69 806.21 218.52 816.85 221.66 826.46 226.41 834.73 232.6 842.52 239.33 848.76 247.38 853.25 256.5 857.17 266.01 859.37 276.44 859.9 287.53 860.26 298.85 859.42 310.7 857.71 322.85 857.13 328.97 856.48 335.15 855.82 341.36 855.5 347.59 855.25 353.84 855.13 360.1 855.45 366.36 855.96 372.62 856.69 378.85 857.91 385.09 859.36 391.28 861.01 397.42 863.14 403.56 865.37 409.49 867.65 415.19 871.51 423.63 878.83 439.32 881.92 446.56 883.85 451.3 885.35 455.79 886.39 460.04 887.95 468.52 887.3 476.07 884.43 482.68 880.5 489.45 874.41 495.48 866.48 500.88 857.72 506.73 847.5 512.26 836.22 517.57 824.55 523.73 812.16 529.97 799.41 536.33 793 539.89 786.53 543.5 780.05 547.12 773.55 550.99 767.05 554.85 760.56 558.69 754.07 562.7 747.61 566.63 741.19 570.43 734.77 574.32 728.39 578.01 722.06 581.43 715.74 584.82 709.61 587.78 703.69 590.28 694.88 593.55 678.19 597.1 670.29 597.28 665.05 596.96 659.97 596.05 655.06 594.59 645.09 590.87 635.68 585.04 626.83 577.43 617.64 569.02 608.85 559.17 600.48 548.24 591.67 536.93 583.19 524.86 575.12 512.35 566.65 499.75 558.64 486.88 551.28 473.96 547.54 467.52 544.01 461.07 540.71 454.64 537.43 448.22 534.42 441.83 531.73 435.47 529.11 429.12 526.84 422.8 524.96 416.54 523.22 410.28 521.9 404.07 521.04 397.93 520.29 388.82 521.54 371.64 523.5 363.57 526.18 355.7 533.88 340.99 538.78 334.15 545.88 325.12 554.18 316.89 563.4 309.48 572.74 301.88 582.81 294.99 593.38 288.79 603.83 282.24 614.72 276.21 625.91 270.71 636.92 264.66 648.27 258.99 659.92 253.73 665.7 250.86 671.56 248.08 677.51 245.41 683.44 242.6 689.46 239.9 695.58 237.33 701.68 234.65 707.89 232.12 714.2 229.78 720.49 227.35 726.9 225.15 733.39 223.19" stroke-dasharray="7 4" transform="rotate(76.76, 711, 400)" opacity="0.22"></path><path d="M731.41 248.78C742.49 245.21 753.08 242.85 763.05 241.7 772.96 240.79 782.15 241.22 790.47 242.96 798.6 245.07 805.73 248.51 811.68 253.15 817.35 258.17 821.79 264.33 824.91 271.43 827.81 278.85 829.51 287.11 830.1 296.01 830.82 305.11 830.78 314.75 830.2 324.73 830.36 334.82 830.47 345.17 830.74 355.6 832.29 366.07 834.3 376.56 836.73 386.92 840.48 397.27 844.2 406.97 847.62 415.95 851.56 424.93 854.58 433.21 856.44 440.76 858.05 448.36 858.1 455.33 856.54 461.67 854.36 468.2 850.52 474.26 845.16 479.92 839.23 485.97 831.96 491.82 823.63 497.5 814.93 503.79 805.4 510.07 795.28 516.3 785.03 523.19 774.35 530.03 763.47 536.62 752.56 543.63 741.51 550.15 730.46 555.84 719.41 561.43 708.85 565.52 698.83 568.02 688.76 569.94 679.15 570.06 670.02 568.46 660.74 566.13 651.85 562.11 643.35 556.61 634.62 550.51 626.19 543.12 618.12 534.71 609.77 525.94 601.73 516.35 594.11 506.22 586.28 495.93 578.93 485.24 572.24 474.37 565.54 463.47 559.66 452.44 554.83 441.47 550.32 430.51 547.07 419.61 545.33 408.91 544.2 398.21 544.75 388.18 546.85 378.87 549.58 369.51 553.76 360.83 559.22 352.83 565.11 344.74 572.11 337.27 579.97 330.43 588.05 323.4 596.86 316.9 606.18 310.93 615.55 304.65 625.35 298.79 635.46 293.36 645.51 287.52 655.86 282.01 666.4 276.91 676.89 271.37 687.61 266.21 698.47 261.58 709.32 256.62 720.34 252.28 731.41 248.78" stroke-dasharray="11 3" transform="rotate(80.80000000000001, 711, 400)" opacity="0.81"></path><path d="M723.81 274.37C732.88 271.25 741.38 269.12 749.21 267.96 757.01 266.95 764.09 266.99 770.36 268.06 779.2 270.53 792.28 280.79 796.47 288.29 798.96 293.77 800.65 299.99 801.63 306.79 802.85 313.73 803.6 321.2 803.98 329.03 804.95 336.94 805.84 345.15 806.74 353.53 808.5 361.93 810.42 370.46 812.45 378.98 815.35 387.51 818.08 395.62 820.48 403.25 823.31 410.9 825.47 418.11 826.81 424.85 828.14 431.66 828.4 438.08 827.53 444.11 826.38 450.3 824.02 456.22 820.51 461.86 816.67 467.8 811.75 473.58 805.88 479.19 799.76 485.19 792.82 491.1 785.21 496.84 777.48 502.97 769.21 508.91 760.53 514.5 751.82 520.33 742.77 525.66 733.49 530.25 724.22 534.78 715.16 538.13 706.38 540.26 697.58 542.04 689.01 542.48 680.74 541.62 672.39 540.31 664.27 537.71 656.44 533.94 648.48 529.76 640.75 524.51 633.34 518.38 625.79 511.96 618.55 504.77 611.72 497.01 604.82 489.1 598.39 480.72 592.58 472.05 586.85 463.32 581.85 454.36 577.75 445.32 573.93 436.28 571.16 427.18 569.61 418.14 568.53 409.1 568.8 400.53 570.32 392.47 572.32 384.39 575.51 376.79 579.75 369.68 584.37 362.5 589.93 355.75 596.27 349.47 602.84 343.03 610.08 336.98 617.82 331.34 625.68 325.47 633.97 319.93 642.54 314.76 651.16 309.31 660.03 304.18 669.04 299.42 678.06 294.39 687.21 289.74 696.38 285.59 705.55 281.23 714.74 277.44 723.81 274.37" stroke-dasharray="5 10" transform="rotate(84.84, 711, 400)" opacity="0.70"></path><path d="M712.68 299.95C719.75 297.34 726.3 295.51 732.3 294.44 740.97 293.34 755.23 295.26 760.76 298.21 765.67 302.09 772.69 313.34 775.04 320.47 776.69 325.48 778.02 330.95 779.08 336.78 780.54 342.66 781.87 348.87 783.09 355.3 784.84 361.76 786.55 368.41 788.17 375.19 790.32 381.97 792.21 388.55 793.76 394.88 795.63 401.23 797 407.35 797.78 413.21 798.72 421.98 796.74 438.63 793.66 446.58 791.2 451.99 787.93 457.27 783.91 462.37 779.77 467.69 774.93 472.85 769.47 477.78 763.94 482.92 757.85 487.8 751.29 492.31 744.7 496.94 737.69 501.11 730.33 504.66 722.96 508.18 715.6 510.8 708.33 512.51 701.06 514.05 693.86 514.61 686.81 514.23 679.74 513.6 672.79 512.03 666.04 509.59 659.25 506.92 652.65 503.42 646.31 499.2 639.95 494.8 633.86 489.74 628.15 484.16 622.46 478.47 617.18 472.31 612.45 465.8 607.83 459.24 603.81 452.39 600.52 445.35 597.46 438.3 595.2 431.09 593.9 423.79 592.91 416.5 592.96 409.47 593.96 402.76 595.29 396.02 597.54 389.58 600.61 383.46 603.95 377.29 608.05 371.4 612.78 365.82 617.72 360.16 623.23 354.76 629.17 349.66 635.25 344.43 641.71 339.46 648.44 334.8 655.25 329.98 662.27 325.44 669.42 321.25 676.6 316.91 683.87 312.92 691.11 309.38 698.38 305.72 705.61 302.54 712.68 299.95" stroke-dasharray="5 1" transform="rotate(88.88, 711, 400)" opacity="0.13"></path><path d="M701.08 325.54C711.39 321.45 720.28 319.73 727.53 320.19 734.8 320.85 740.57 323.75 744.82 328.55 749.43 333.56 752.95 340.35 755.45 348.48 758.89 356.69 761.77 366.09 763.88 376.27 767.13 386.46 769.07 396.49 769.55 406 770.39 415.63 769.21 424.97 765.99 433.67 762.64 442.71 757.1 451.31 749.64 458.97 742.05 466.97 732.66 473.92 721.83 479.07 710.99 484.14 699.82 486.55 688.91 486.43 678.03 485.86 667.39 482.72 657.6 477.42 647.89 471.74 639.14 464.12 632.01 455.13 625.26 446 620.42 435.72 618.18 424.76 616.72 413.81 618.16 403.23 621.98 393.41 626.49 383.49 633.14 374.15 641.28 365.73 649.8 357.05 659.52 349.13 669.74 342.41 680.1 335.39 690.77 329.57 701.08 325.54" stroke-dasharray="4 1" transform="rotate(92.92, 711, 400)" opacity="0.16"></path><path d="M692.21 351.13C701.96 347.64 717.63 348.11 723.52 351.77 728.96 356.75 737 372.12 739.6 382.03 741.54 388.88 742.43 395.85 742.29 402.64 742.38 409.48 741.24 416.21 738.9 422.51 736.59 428.92 732.99 434.95 728.2 440.22 723.38 445.59 717.37 450.17 710.34 453.49 703.31 456.77 695.97 458.37 688.74 458.41 681.55 458.3 674.52 456.6 668.07 453.54 661.73 450.34 656.06 445.83 651.47 440.28 647.12 434.68 643.98 428.12 642.46 420.86 641.32 413.6 641.95 406.33 644.07 399.4 646.51 392.43 650.32 385.74 655.13 379.62 660.13 373.42 666 367.74 672.33 362.92 678.73 358.01 685.49 353.95 692.21 351.13" stroke-dasharray="10 3" transform="rotate(96.96, 711, 400)" opacity="0.09"></path></g></svg>