<svg xmlns="http://www.w3.org/2000/svg" version="1.1" xmlns:xlink="http://www.w3.org/1999/xlink" xmlns:svgjs="http://svgjs.dev/svgjs" width="2000" height="242" viewBox="0 0 2000 242"><g transform="matrix(1,0,0,1,-1.2120763697416805,0.9138020203041606)"><svg viewBox="0 0 396 48" data-background-color="#97978d" preserveAspectRatio="xMidYMid meet" height="242" width="2000" xmlns="http://www.w3.org/2000/svg" xmlns:xlink="http://www.w3.org/1999/xlink"><g id="tight-bounds" transform="matrix(1,0,0,1,0.23999119057441476,-0.1812499874983473)"><svg viewBox="0 0 395.52 48.362497755285276" height="48.362497755285276" width="395.52"><g><svg viewBox="0 0 395.52 48.362497755285276" height="48.362497755285276" width="395.52"><g><svg viewBox="0 0 395.52 48.362497755285276" height="48.362497755285276" width="395.52"><g id="textblocktransform"><svg viewBox="0 0 395.52 48.362497755285276" height="48.362497755285276" width="395.52" id="textblock"><g><svg viewBox="0 0 395.52 48.362497755285276" height="48.362497755285276" width="395.52"><g transform="matrix(1,0,0,1,0,0)"><svg width="395.52" viewBox="1.0700000524520874 -36.060001373291016 299.0799865722656 36.56999969482422" height="48.362497755285276" data-palette-color="#ffffff"><g class="wordmark-text-0" data-fill-palette-color="primary" id="text-0"><path d="M18.36 0.51L18.36 0.51Q13.23 0.51 9.33-1.6 5.42-3.71 3.25-7.63 1.07-11.55 1.07-17.04L1.07-17.04 1.07-18.48Q1.07-23.61 3.11-27.58 5.15-31.54 8.96-33.8 12.77-36.06 17.99-36.06L17.99-36.06Q21.66-36.06 24.91-35.06 28.17-34.06 30.88-31.79L30.88-31.79 30.88-22.92 25.1-22.92 24.32-28.25Q23.49-28.81 22.56-29.22 21.63-29.64 20.56-29.86 19.48-30.08 18.24-30.08L18.24-30.08Q15.38-30.08 13.28-28.69 11.18-27.29 10.05-24.72 8.91-22.14 8.91-18.53L8.91-18.53 8.91-17.04Q8.91-13.55 10.08-10.94 11.25-8.33 13.42-6.88 15.58-5.44 18.48-5.44L18.48-5.44Q19.97-5.44 21.48-5.77 23-6.1 24.32-6.64L24.32-6.64 25.12-11.65 30.88-11.65 30.88-2.93Q28.78-1.51 25.59-0.5 22.39 0.51 18.36 0.51ZM50.49 0.51L50.49 0.51Q46.85 0.51 43.83-0.83 40.82-2.17 38.61-4.61 36.4-7.06 35.21-10.34 34.03-13.62 34.03-17.5L34.03-17.5 34.03-18.07Q34.03-21.92 35.21-25.2 36.4-28.47 38.6-30.91 40.79-33.35 43.8-34.7 46.8-36.06 50.44-36.06L50.44-36.06Q54.07-36.06 57.1-34.7 60.13-33.35 62.38-30.91 64.62-28.47 65.85-25.2 67.09-21.92 67.09-18.07L67.09-18.07 67.09-17.5Q67.09-13.62 65.85-10.34 64.62-7.06 62.39-4.61 60.15-2.17 57.11-0.83 54.07 0.51 50.49 0.51ZM50.49-5.49L50.49-5.49Q53.34-5.49 55.3-6.99 57.25-8.5 58.26-11.19 59.27-13.89 59.27-17.5L59.27-17.5 59.27-18.12Q59.27-21.66 58.25-24.33 57.22-27 55.27-28.52 53.32-30.03 50.44-30.03L50.44-30.03Q47.53-30.03 45.63-28.54 43.72-27.05 42.8-24.38 41.87-21.7 41.87-18.12L41.87-18.12 41.87-17.5Q41.87-13.92 42.81-11.21 43.75-8.5 45.66-6.99 47.58-5.49 50.49-5.49ZM85.83 0L69.67 0 69.67-4.64 73.46-5.49 73.46-30 69.67-30.88 69.67-35.55 73.46-35.55 85.79-35.55Q90.6-35.55 94.26-33.31 97.92-31.08 100-27.14 102.07-23.19 102.07-18.07L102.07-18.07 102.07-17.46Q102.07-12.35 100.02-8.41 97.97-4.47 94.31-2.23 90.64 0 85.83 0L85.83 0ZM81.29-29.54L81.29-5.98 85.44-5.98Q88.28-5.98 90.22-7.43 92.16-8.89 93.17-11.49 94.18-14.09 94.18-17.46L94.18-17.46 94.18-18.09Q94.18-21.51 93.17-24.08 92.16-26.66 90.22-28.1 88.28-29.54 85.44-29.54L85.44-29.54 81.29-29.54ZM133.46 0L105.02 0 105.02-4.64 108.76-5.4 108.76-30.13 105.02-30.88 105.02-35.55 133.02-35.55 133.02-25.61 127.04-25.61 126.77-29.52 116.62-29.52 116.62-21.39 128.29-21.39 128.29-15.36 116.62-15.36 116.62-6.03 127.31-6.03 127.58-10.08 133.46-10.08 133.46 0ZM152.28 0L136.95 0 136.95-4.64 140.69-5.4 140.69-30.13 136.95-30.88 136.95-35.57 154.12-35.57Q158.27-35.57 161.29-34.25 164.32-32.93 165.94-30.52 167.57-28.1 167.57-24.76L167.57-24.76Q167.57-21.63 165.93-19.04 164.3-16.46 161.44-14.94 158.58-13.43 154.87-13.43L154.87-13.43 148.55-13.45 148.55-5.4 152.28-4.64 152.28 0ZM169.16 0L159.63 0 154.26-14.6 161.2-16.67 165.96-5.4 169.16-4.64 169.16 0ZM148.55-29.54L148.55-19.51 154.09-19.51Q156.87-19.51 158.32-20.73 159.76-21.95 159.76-24.29L159.76-24.29Q159.76-26.68 158.32-28.11 156.87-29.54 154.12-29.54L154.12-29.54 148.55-29.54ZM184.19 0.51L184.19 0.51Q180.26 0.51 177.34-0.78 174.43-2.08 172.78-4.72 171.13-7.37 170.98-11.47L170.98-11.47 171.03-11.62 178.36-11.62Q178.58-8.15 179.89-6.87 181.21-5.59 183.31-5.59L183.31-5.59Q184.58-5.59 185.64-6.15 186.71-6.71 187.37-7.89 188.02-9.06 188.02-10.86L188.02-10.86 188.02-30.13 183.19-30.91 183.19-35.55 199.6-35.55 199.6-30.88 195.84-30.13 195.84-10.86Q195.84-7.35 194.47-4.8 193.1-2.25 190.51-0.87 187.93 0.51 184.19 0.51ZM217.93 0.51L217.93 0.51Q214.29 0.51 211.28-0.83 208.26-2.17 206.05-4.61 203.84-7.06 202.66-10.34 201.47-13.62 201.47-17.5L201.47-17.5 201.47-18.07Q201.47-21.92 202.66-25.2 203.84-28.47 206.04-30.91 208.24-33.35 211.24-34.7 214.24-36.06 217.88-36.06L217.88-36.06Q221.52-36.06 224.55-34.7 227.57-33.35 229.82-30.91 232.07-28.47 233.3-25.2 234.53-21.92 234.53-18.07L234.53-18.07 234.53-17.5Q234.53-13.62 233.3-10.34 232.07-7.06 229.83-4.61 227.6-2.17 224.56-0.83 221.52 0.51 217.93 0.51ZM217.93-5.49L217.93-5.49Q220.79-5.49 222.74-6.99 224.69-8.5 225.71-11.19 226.72-13.89 226.72-17.5L226.72-17.5 226.72-18.12Q226.72-21.66 225.69-24.33 224.67-27 222.71-28.52 220.76-30.03 217.88-30.03L217.88-30.03Q214.98-30.03 213.07-28.54 211.17-27.05 210.24-24.38 209.31-21.7 209.31-18.12L209.31-18.12 209.31-17.5Q209.31-13.92 210.25-11.21 211.19-8.5 213.11-6.99 215.02-5.49 217.93-5.49ZM249.81 0.51L249.81 0.51Q245.88 0.51 242.96-0.78 240.05-2.08 238.4-4.72 236.75-7.37 236.6-11.47L236.6-11.47 236.65-11.62 243.98-11.62Q244.2-8.15 245.51-6.87 246.83-5.59 248.93-5.59L248.93-5.59Q250.2-5.59 251.26-6.15 252.33-6.71 252.99-7.89 253.64-9.06 253.64-10.86L253.64-10.86 253.64-30.13 248.81-30.91 248.81-35.55 265.22-35.55 265.22-30.88 261.46-30.13 261.46-10.86Q261.46-7.35 260.09-4.8 258.72-2.25 256.13-0.87 253.55 0.51 249.81 0.51ZM283.55 0.51L283.55 0.51Q279.91 0.51 276.9-0.83 273.88-2.17 271.67-4.61 269.46-7.06 268.28-10.34 267.09-13.62 267.09-17.5L267.09-17.5 267.09-18.07Q267.09-21.92 268.28-25.2 269.46-28.47 271.66-30.91 273.86-33.35 276.86-34.7 279.86-36.06 283.5-36.06L283.5-36.06Q287.14-36.06 290.17-34.7 293.19-33.35 295.44-30.91 297.69-28.47 298.92-25.2 300.15-21.92 300.15-18.07L300.15-18.07 300.15-17.5Q300.15-13.62 298.92-10.34 297.69-7.06 295.45-4.61 293.22-2.17 290.18-0.83 287.14 0.51 283.55 0.51ZM283.55-5.49L283.55-5.49Q286.41-5.49 288.36-6.99 290.31-8.5 291.33-11.19 292.34-13.89 292.34-17.5L292.34-17.5 292.34-18.12Q292.34-21.66 291.31-24.33 290.29-27 288.33-28.52 286.38-30.03 283.5-30.03L283.5-30.03Q280.6-30.03 278.69-28.54 276.79-27.05 275.86-24.38 274.93-21.7 274.93-18.12L274.93-18.12 274.93-17.5Q274.93-13.92 275.87-11.21 276.81-8.5 278.73-6.99 280.64-5.49 283.55-5.49Z" fill="#ffffff" data-fill-palette-color="primary"></path></g></svg></g></svg></g></svg></g></svg></g></svg></g><defs></defs></svg><rect width="395.52" height="48.362497755285276" fill="none" stroke="none" visibility="hidden"></rect></g></svg></g></svg>