<svg xmlns="http://www.w3.org/2000/svg" version="1.1" xmlns:xlink="http://www.w3.org/1999/xlink" xmlns:svgjs="http://svgjs.dev/svgjs" viewBox="0 0 800 800" opacity="1"><defs><linearGradient x1="50%" y1="0%" x2="50%" y2="100%" id="gggyrate-grad"><stop stop-color="#344966" stop-opacity="1" offset="0%"></stop><stop stop-color="#e6aace" stop-opacity="1" offset="100%"></stop></linearGradient></defs><g stroke-width="3" stroke="url(#gggyrate-grad)" fill="none"><path d="M364.4352424900658 -112.93939778829582C386.4426955529357 -125.64311826996541 413.5572434119081 -125.64311826996541 435.564696474778 -112.93584131559658L826.4352720115676 112.73302086900014C848.4427250744375 125.4367413506697 861.9999990039237 148.92013058372243 861.9999990039237 174.33112801976097V625.6688523889543C861.9999990039237 651.0798498249928 848.4427250744375 674.5632390580456 826.4352720115676 687.2705160124142L435.564696474778 912.9393781970109C413.5572434119081 925.6430986786806 386.4426955529357 925.6430986786806 364.4352424900658 912.9358217243118L-26.43533304672394 687.2669595397151C-48.44278610959384 674.5632390580456 -62.00006003907998 651.0798498249928 -62.00006003907998 625.6688523889543V174.33112801976097C-62.00006003907998 148.92013058372243 -48.44278610959384 125.4367413506697 -26.43533304672394 112.72946439630095L364.4352424900658 -112.93939778829582Z " transform="rotate(44, 400, 400)" opacity="0.05"></path><path d="M366.0518209897184 -89.62398379414566C387.05893527700323 -101.75026243573936 412.9410036878405 -101.75026243573936 433.94811797512534 -89.62058897929637L807.0518491693338 125.79059765145502C828.0589634566186 137.9168762930487 840.9999976620375 160.33283874278084 840.9999976620375 184.58879084081764V615.4111641023203C840.9999976620375 639.6671162003571 828.0589634566186 662.0830786500892 807.0518491693338 674.2127521065322L433.94811797512534 889.6239387372834C412.9410036878405 901.7502173788771 387.05893527700323 901.7502173788771 366.0518209897184 889.6205439224343L-7.0519102044900706 674.2093572916829C-28.05902449177495 662.0830786500892 -41.00005869719354 639.6671162003571 -41.00005869719354 615.4111641023203V184.58879084081764C-41.00005869719354 160.33283874278084 -28.05902449177495 137.9168762930487 -7.0519102044900706 125.78720283660579L366.0518209897184 -89.62398379414566Z " transform="rotate(42, 400, 400)" opacity="0.10"></path><path d="M367.6683994893709 -66.3085697999955C387.6751750010708 -77.85740660151328 412.32476396377297 -77.85740660151328 432.3315394754728 -66.30533664299617L787.6684263271 138.8481744339099C807.6752018387997 150.39701123542773 819.9999963201508 171.74554690183925 819.9999963201508 194.8464536618742V605.1534758156864C819.9999963201508 628.2543825757215 807.6752018387997 649.602918242133 787.6684263271 661.15498820065L432.3315394754728 866.3084992775562C412.32476396377297 877.8573360790738 387.6751750010708 877.8573360790738 367.6683994893709 866.3052661205568L12.331512637743856 661.1517550436508C-7.675262873956058 649.602918242133 -20.000057355307092 628.2543825757215 -20.000057355307092 605.1534758156864V194.8464536618742C-20.000057355307092 171.74554690183925 -7.675262873956058 150.39701123542773 12.331512637743856 138.84494127691067L367.6683994893709 -66.3085697999955Z " transform="rotate(40, 400, 400)" opacity="0.14"></path><path d="M369.28497798902345 -42.99309477068908C388.29141472513834 -53.96448973213097 411.7085242397054 -53.96448973213097 430.7149609758203 -42.99002327153971L768.2850034848661 151.90581225152107C787.2914402209808 162.87720721296296 798.9999949782643 183.15831609605397 798.9999949782643 205.10417751808723V594.8958485642087C798.9999949782643 616.841709986242 787.2914402209808 637.122818869333 768.2850034848661 648.0972853299241L430.7149609758203 842.9931208529849C411.7085242397054 853.9645158144267 388.29141472513834 853.9645158144267 369.28497798902345 842.9900493538357L31.714935479977726 648.094213830775C12.708498743862833 637.122818869333 0.9999439865793533 616.841709986242 0.9999439865793533 594.8958485642087V205.10417751808723C0.9999439865793533 183.15831609605397 12.708498743862833 162.87720721296296 31.714935479977726 151.90274075237176L369.28497798902345 -42.99309477068908Z " transform="rotate(38, 400, 400)" opacity="0.19"></path><path d="M370.9015564886761 -19.67768077653892C388.9076544492059 -30.071633897904917 411.09228451563786 -30.071633897904917 429.09838247616767 -19.674770935239508L748.9015806426321 164.96338903397594C766.907678603162 175.35734215534194 777.9999936363779 194.57102425511238 777.9999936363779 215.3618403391439V584.6381602775748C777.9999936363779 605.4289763616063 766.907678603162 624.6426584613766 748.9015806426321 635.039521424042L429.09838247616767 819.6776813932574C411.09228451563786 830.0716345146236 388.9076544492059 830.0716345146236 370.9015564886761 819.6747715519582L51.09835832221165 635.0366115827428C33.092260361681724 624.6426584613766 21.9999453284658 605.4289763616063 21.9999453284658 584.6381602775748V215.3618403391439C21.9999453284658 194.57102425511238 33.092260361681724 175.35734215534194 51.09835832221165 164.96047919267664L370.9015564886761 -19.67768077653892Z " transform="rotate(36, 400, 400)" opacity="0.23"></path><path d="M372.51819602348485 3.637733217611242C389.5239552084297 -6.1787780636788625 410.47610582672655 -6.1787780636788625 427.4818650116714 3.640481401060697L729.5182188355545 178.02096581643082C746.5239780204994 187.83747709772098 757.0000533296478 205.9837324141708 757.0000533296478 225.61950316020057V574.3804719909408C757.0000533296478 594.0162427369706 746.5239780204994 612.1624980534204 729.5182188355545 621.98175751816L427.4818650116714 796.3622419335302C410.47610582672655 806.1787532148201 389.5239552084297 806.1787532148201 372.51819602348485 796.3594937500807L70.48184219960177 621.9790093347107C53.476083014656865 612.1624980534204 43.000007705508494 594.0162427369706 43.000007705508494 574.3804719909408V225.61950316020057C43.000007705508494 205.9837324141708 53.476083014656865 187.83747709772098 70.48184219960177 178.01821763298148L372.51819602348485 3.637733217611242Z " transform="rotate(34, 400, 400)" opacity="0.28"></path><path d="M374.13477452313737 26.95317772933953C390.14019493249725 17.714108288125317 409.859866102659 17.714108288125317 425.8652865120189 26.955764254939027L710.1347959933206 191.07857311646387C726.1402164026805 200.31764255767808 736.0000519877614 217.39647109080738 736.0000519877614 235.87719649883536V564.122814221885C736.0000519877614 582.603539629913 726.1402164026805 599.6823681630423 710.1347959933206 608.924024129856L425.8652865120189 773.0468329913808C409.859866102659 782.2859024325951 390.14019493249725 782.2859024325951 374.13477452313737 773.0442464657815L89.8652650418357 608.9214376042567C73.85984463247576 599.6823681630423 64.00000904739494 582.603539629913 64.00000904739494 564.122814221885V235.87719649883536C64.00000904739494 217.39647109080738 73.85984463247576 200.31764255767808 89.8652650418357 191.0759865908645L374.13477452313737 26.95317772933953Z " transform="rotate(32, 400, 400)" opacity="0.32"></path><path d="M375.75135302279 50.26859172348969C390.7564346565648 41.60696412235137 409.24362637859144 41.60696412235137 424.24870801236625 50.27101659123923L690.7513731510866 204.13614989891875C705.7564547848616 212.79777750005712 715.0000506458748 228.8091792498658 715.0000506458748 246.13485931989203V553.8651259352512C715.0000506458748 571.1908060052774 705.7564547848616 587.2022077550861 690.7513731510866 595.8662602239739L424.24870801236625 749.7313935316533C409.24362637859144 758.3930211327918 390.7564346565648 758.3930211327918 375.75135302279 749.728968663904L109.24868788406957 595.8638353562244C94.2436062502947 587.2022077550861 85.00001038928139 571.1908060052774 85.00001038928139 553.8651259352512V246.13485931989203C85.00001038928139 228.8091792498658 94.2436062502947 212.79777750005712 109.24868788406957 204.13372503116932L375.75135302279 50.26859172348969Z " transform="rotate(30, 400, 400)" opacity="0.37"></path><path d="M377.3679315224424 73.58403623521798C391.37267438063236 65.49985047415555 408.6273866545239 65.49985047415555 422.63212951271385 73.5862994451175L671.3679503088528 217.19375719895174C685.3726931670427 225.27794296001423 694.0000493039884 240.22191792650233 694.0000493039884 256.3925526585268V543.6074681661953C694.0000493039884 559.7781028982199 685.3726931670427 574.7220778647079 671.3679503088528 582.8085268356699L422.63212951271385 726.4159845895041C408.6273866545239 734.5001703505666 391.37267438063236 734.5001703505666 377.3679315224424 726.4137213796047L128.6321107263035 582.8062636257704C114.6273678681136 574.7220778647079 106.00001173116783 559.7781028982199 106.00001173116783 543.6074681661953V256.3925526585268C106.00001173116783 240.22191792650233 114.6273678681136 225.27794296001423 128.6321107263035 217.19149398905233L377.3679315224424 73.58403623521798Z " transform="rotate(28, 400, 400)" opacity="0.41"></path><path d="M378.98451002209504 96.89945022936814C391.9889141046999 89.3927063083816 408.01114693045633 89.3927063083816 421.0155510130612 96.90155178141771L651.9845274666188 230.25133398140667C664.9889315492238 237.7580779023932 673.000047962102 251.63462608556074 673.000047962102 266.65021547958355V533.3497798795614C673.000047962102 548.3653692735842 664.9889315492238 562.2419174567517 651.9845274666188 569.7507629297877L421.0155510130612 703.1005451297767C408.01114693045633 710.6072890507634 391.9889141046999 710.6072890507634 378.98451002209504 703.0984435777273L148.01553356853742 569.7486613777382C135.01112948593249 562.2419174567517 127.00001307305428 548.3653692735842 127.00001307305428 533.3497798795614V266.65021547958355C127.00001307305428 251.63462608556074 135.01112948593249 237.7580779023932 148.01553356853742 230.24923242935716L378.98451002209504 96.89945022936814Z " transform="rotate(26, 400, 400)" opacity="0.46"></path><path d="M380.6010732629585 120.21486422351836C392.6051385699784 113.28556214260766 407.3948919475997 113.28556214260766 419.39895725461963 120.21680411771791L632.601089365596 243.3089107638616C644.6051546726158 250.23821284477225 652.0000313614264 263.0473342446192 652.0000313614264 276.9078783006402V523.0920915929275C652.0000313614264 536.9526356489484 644.6051546726158 549.7617570487955 632.601089365596 556.6929990239057L419.39895725461963 679.7851056700492C407.3948919475997 686.7144077509599 392.6051385699784 686.7144077509599 380.6010732629585 679.7831657758497L167.39894115198223 556.6910591297061C155.3948758449623 549.7617570487955 147.99999915615166 536.9526356489484 147.99999915615166 523.0920915929275V276.9078783006402C147.99999915615166 263.0473342446192 155.3948758449623 250.23821284477225 167.39894115198223 243.30697086966205L380.6010732629585 120.21486422351836Z " transform="rotate(24, 400, 400)" opacity="0.50"></path><path d="M382.21763650382195 143.53030873524665C393.2213630352569 137.17844849441184 406.7786369647431 137.17844849441184 417.78236349617805 143.53208697159624L613.2176512645729 256.3665180638946C624.2213777960078 262.7183783047294 631.0000147607509 274.46007292125574 631.0000147607509 287.165571639275V512.8344338238717C631.0000147607509 525.539932541891 624.2213777960078 537.2816271584173 613.2176512645729 543.6352656356016L417.78236349617805 656.4696967279C406.7786369647431 662.8215569687349 393.2213630352569 662.8215569687349 382.21763650382195 656.4679184915504L186.7823487354271 543.6334873992521C175.77862220399214 537.2816271584173 168.99998523924904 525.539932541891 168.99998523924904 512.8344338238717V287.165571639275C168.99998523924904 274.46007292125574 175.77862220399214 262.7183783047294 186.7823487354271 256.364739827545L382.21763650382195 143.53030873524665Z " transform="rotate(22, 400, 400)" opacity="0.55"></path><path d="M383.8342150034745 166.8457227293968C393.83760275932445 161.0713043286379 406.16239724067555 161.0713043286379 416.1657849965255 166.84733930789645L593.834228422339 269.4240948463495C603.8376161781889 275.1985132471084 610.0000134188645 285.87278108031416 610.0000134188645 297.4232344603316V502.5767455372377C610.0000134188645 514.1271989172553 603.8376161781889 524.801466750461 593.834228422339 530.5775017297195L416.1657849965255 633.1542572681726C406.16239724067555 638.9286756689314 393.83760275932445 638.9286756689314 383.8342150034745 633.1526406896729L206.16577157766096 530.57588515122C196.16238382181103 524.801466750461 189.9999865811355 514.1271989172553 189.9999865811355 502.5767455372377V297.4232344603316C189.9999865811355 285.87278108031416 196.16238382181103 275.1985132471084 206.16577157766096 269.4224782678499L383.8342150034745 166.8457227293968Z " transform="rotate(20, 400, 400)" opacity="0.59"></path><path d="M385.4507935031271 190.1611672411251C394.453842483392 184.96419068044207 405.546157516608 184.96419068044207 414.5492064968729 190.16262216177478L574.4508055801051 282.48170214638253C583.45385456037 287.6786787070655 589.000012076978 297.28551975695075 589.000012076978 307.6809277989665V492.31908776818193C589.000012076978 502.7144958101976 583.45385456037 512.3213368600829 574.4508055801051 517.5197683414156L414.5492064968729 609.8388483260233C405.546157516608 615.0358248867063 394.453842483392 615.0358248867063 385.4507935031271 609.8373934053736L225.5491944198949 517.5183134207659C216.54614543962992 512.3213368600829 210.99998792302193 502.7144958101976 210.99998792302193 492.31908776818193V307.6809277989665C210.99998792302193 297.28551975695075 216.54614543962992 287.6786787070655 225.5491944198949 282.48024722573285L385.4507935031271 190.1611672411251Z " transform="rotate(18, 400, 400)" opacity="0.64"></path><path d="M387.0673720027796 213.47658123527526C395.07008220745956 208.85704651466813 404.92991779254044 208.85704651466813 412.9326279972204 213.47787449807498L555.0673827378712 295.5392789288374C563.0700929425511 300.1588136494445 568.0000107350916 308.69822791600916 568.0000107350916 317.93859062002315V482.06139948154805C568.0000107350916 491.301762185562 563.0700929425511 499.84117645212655 555.0673827378712 504.46200443553346L412.9326279972204 586.5234088662959C404.92991779254044 591.142943586903 395.07008220745956 591.142943586903 387.0673720027796 586.5221156034962L244.93261726212876 504.4607111727338C236.92990705744882 499.84117645212655 231.99998926490838 491.301762185562 231.99998926490838 482.06139948154805V317.93859062002315C231.99998926490838 308.69822791600916 236.92990705744882 300.1588136494445 244.93261726212876 295.5379856660377L387.0673720027796 213.47658123527526Z " transform="rotate(16, 400, 400)" opacity="0.68"></path><path d="M388.68395050243214 236.7920104882145C395.6863219315271 232.74991760768324 404.3136780684729 232.74991760768324 411.31604949756786 236.79314209316425L535.6839598956374 308.59687097008134C542.6863313247322 312.6389638506126 547.0000093932051 320.11095133385663 547.0000093932051 328.1962686998689V471.8037264537031C547.0000093932051 479.8890438197154 542.6863313247322 487.3610313029594 535.6839598956374 491.4042557884404L411.31604949756786 563.2079846653576C404.3136780684729 567.2500775458888 395.6863219315271 567.2500775458888 388.68395050243214 563.2068530604079L264.3160401043627 491.40312418349066C257.3136686752677 487.3610313029594 252.99999060679488 479.8890438197154 252.99999060679488 471.8037264537031V328.1962686998689C252.99999060679488 320.11095133385663 257.3136686752677 312.6389638506126 264.3160401043627 308.59573936513164L388.68395050243214 236.7920104882145Z " transform="rotate(14, 400, 400)" opacity="0.73"></path><path d="M390.3005290020847 260.10742448236465C396.3025616555947 256.6427734419093 403.6974383444053 256.6427734419093 409.6994709979153 260.1083944294644L516.3005370534034 321.65444775253627C522.3025697069133 325.1190987929916 526.0000080513187 331.52365949291504 526.0000080513187 338.4539315209256V461.54603816706924C526.0000080513187 468.4763101950797 522.3025697069133 474.8808708950032 516.3005370534034 478.3464918825583L409.6994709979153 539.8925452056301C403.6974383444053 543.3571962460854 396.3025616555947 543.3571962460854 390.3005290020847 539.8915752585303L283.6994629465966 478.3455219354585C277.6974302930866 474.8808708950032 273.9999919486813 468.4763101950797 273.9999919486813 461.54603816706924V338.4539315209256C273.9999919486813 331.52365949291504 277.6974302930866 325.1190987929916 283.6994629465966 321.6534778054365L390.3005290020847 260.10742448236465Z " transform="rotate(12, 400, 400)" opacity="0.77"></path><path d="M391.9171075017373 283.4228613646984C396.9188013796622 280.53565216431895 403.0811986203378 280.53565216431895 408.0828924982627 283.4236696539482L496.9171142111695 334.71204742317474C501.91880808909445 337.5992566235542 505.0000067094322 342.93639054015705 505.0000067094322 348.7116172301658V451.28837276861884C505.0000067094322 457.06359945862766 501.91880808909445 462.4007333752305 496.9171142111695 465.28875086485976L408.0828924982627 516.5771286340863C403.0811986203378 519.4643378344657 396.9188013796622 519.4643378344657 391.9171075017373 516.5763203448364L303.0828857888305 465.28794257561C298.08119191090555 462.4007333752305 294.9999932905678 457.06359945862766 294.9999932905678 451.28837276861884V348.7116172301658C294.9999932905678 342.93639054015705 298.08119191090555 337.5992566235542 303.0828857888305 334.71123913392495L391.9171075017373 283.4228613646984Z " transform="rotate(10, 400, 400)" opacity="0.82"></path><path d="M393.5336860013898 306.73829824703216C397.5350411037298 304.4285308867286 402.4649588962702 304.4285308867286 406.4663139986102 306.738944878432L477.5336913689356 347.7696470938132C481.53504647127556 350.0794144541168 484.0000053675458 354.3491215873991 484.0000053675458 358.96930293940613V441.03070737016856C484.0000053675458 445.6508887221755 481.53504647127556 449.9205958554578 477.5336913689356 452.23100984716126L406.4663139986102 493.2617120625425C402.4649588962702 495.57147942284604 397.5350411037298 495.57147942284604 393.5336860013898 493.26106543114264L322.4663086310644 452.23036321576143C318.46495352872444 449.9205958554578 315.9999946324542 445.6508887221755 315.9999946324542 441.03070737016856V358.96930293940613C315.9999946324542 354.3491215873991 318.46495352872444 350.0794144541168 322.4663086310644 347.7690004624134L393.5336860013898 306.73829824703216Z " transform="rotate(8, 400, 400)" opacity="0.86"></path><path d="M395.15026450104233 330.0537274999714C398.15128082779734 328.3214019797437 401.84871917220266 328.3214019797437 404.84973549895767 330.05421247352126L458.1502685267017 360.8272391350572C461.1512848534567 362.5595646552849 463.00000402565934 365.7618450052466 463.00000402565934 369.22698101925187V430.7730343423237C463.00000402565934 434.2381703563289 461.1512848534567 437.4404507062907 458.1502685267017 439.1732612000682L404.84973549895767 469.9462878616041C401.84871917220266 471.6786133818318 398.15128082779734 471.6786133818318 395.15026450104233 469.94580288805423L341.8497314732983 439.1727762265183C338.8487151465433 437.4404507062907 336.99999597434066 434.2381703563289 336.99999597434066 430.7730343423237V369.22698101925187C336.99999597434066 365.7618450052466 338.8487151465433 362.5595646552849 341.8497314732983 360.8267541615073L395.15026450104233 330.0537274999714Z " transform="rotate(6, 400, 400)" opacity="0.91"></path><path d="M396.7668430006949 353.3691491235161C398.7675205518649 352.2142654433643 401.2324794481351 352.2142654433643 403.2331569993051 353.369472439216L438.7668456844678 373.8848235469066C440.7675232356378 375.0397072270584 442.0000026837729 377.1745607936995 442.0000026837729 379.48465146970307V420.5153536850843C442.0000026837729 422.82544436108776 440.7675232356378 424.9602979277289 438.7668456844678 426.1155049235806L403.2331569993051 446.63085603127126C401.2324794481351 447.78573971142305 398.7675205518649 447.78573971142305 396.7668430006949 446.63053271557135L361.2331543155322 426.1151816078807C359.2324767643622 424.9602979277289 357.9999973162271 422.82544436108776 357.9999973162271 420.5153536850843V379.48465146970307C357.9999973162271 377.1745607936995 359.2324767643622 375.0397072270584 361.2331543155322 373.8845002312067L396.7668430006949 353.3691491235161Z " transform="rotate(4, 400, 400)" opacity="0.95"></path><path d="M398.3834215003475 376.6845783764553C399.38376027593245 376.1071365363794 400.61623972406755 376.1071365363794 401.6165784996525 376.68474003430526L419.3834228422339 386.9424155881506C420.3837616178189 387.5198574282265 421.00000134188645 388.58728421154706 421.00000134188645 389.7423295495488V410.2576806572394C421.00000134188645 411.41272599524115 420.3837616178189 412.4801527785617 419.3834228422339 413.05775627648757L401.6165784996525 423.3154318303329C400.61623972406755 423.8928736704088 399.38376027593245 423.8928736704088 398.3834215003475 423.31527017248294L380.6165771577661 413.0575946186376C379.6162383821811 412.4801527785617 378.99999865811355 411.41272599524115 378.99999865811355 410.2576806572394V389.7423295495488C378.99999865811355 388.58728421154706 379.6162383821811 387.5198574282265 380.6165771577661 386.94225393030064L398.3834215003475 376.6845783764553Z " transform="rotate(2, 400, 400)" opacity="1.00"></path></g></svg>